<svg width="308" height="308" viewBox="0 0 308 308" fill="none" xmlns="http://www.w3.org/2000/svg">
<path d="M237.714 221.437C237.714 221.437 238.417 194.028 232.888 177.747C227.359 161.463 244.675 144.224 235.287 120.588C228.364 103.155 188.746 71.6101 147.335 86.0491C115.897 97.0108 130.318 112.127 124.093 128.384C117.869 144.643 108.795 162.599 105.515 166.175C102.234 169.751 108.57 152.374 108.585 144.64C108.601 136.906 85.1682 144.107 77.3573 155.894C69.5434 167.681 79.7597 204.919 83.853 212.267C87.9464 219.616 97.9194 221.437 97.9194 221.437H237.714Z" fill="#03BA55"/>
<path d="M221.855 148.927C219.773 148.927 218.079 147.233 218.079 145.151C218.079 143.069 219.773 141.375 221.855 141.375C223.938 141.375 225.632 143.069 225.632 145.151C225.628 147.233 223.934 148.927 221.855 148.927ZM221.855 142.29C220.278 142.29 218.994 143.574 218.994 145.151C218.994 146.728 220.278 148.012 221.855 148.012C223.432 148.012 224.717 146.728 224.717 145.151C224.714 143.574 223.432 142.29 221.855 142.29Z" fill="#99BBDD"/>
<path d="M104.939 104.163C102.857 104.163 101.163 102.469 101.163 100.386C101.163 98.3043 102.857 96.6104 104.939 96.6104C107.021 96.6104 108.715 98.3043 108.715 100.386C108.715 102.469 107.021 104.163 104.939 104.163ZM104.939 97.5282C103.362 97.5282 102.077 98.8125 102.077 100.39C102.077 101.966 103.362 103.251 104.939 103.251C106.516 103.251 107.8 101.966 107.8 100.39C107.8 98.8125 106.516 97.5282 104.939 97.5282Z" fill="#99BBDD"/>
<path d="M70.2332 163.526C68.1512 163.526 66.4572 161.832 66.4572 159.75C66.4572 157.668 68.1512 155.974 70.2332 155.974C72.3153 155.974 74.0093 157.668 74.0093 159.75C74.0062 161.832 72.3122 163.526 70.2332 163.526ZM70.2332 156.892C68.6563 156.892 67.3719 158.176 67.3719 159.753C67.3719 161.33 68.6563 162.615 70.2332 162.615C71.8102 162.615 73.0946 161.33 73.0946 159.753C73.0915 158.173 71.8102 156.892 70.2332 156.892Z" fill="#99BBDD"/>
<path d="M161.112 104.163C159.03 104.163 157.336 102.469 157.336 100.386C157.336 98.3043 159.03 96.6104 161.112 96.6104C163.194 96.6104 164.888 98.3043 164.888 100.386C164.888 102.469 163.194 104.163 161.112 104.163ZM161.112 97.5282C159.535 97.5282 158.25 98.8125 158.25 100.39C158.25 101.966 159.535 103.251 161.112 103.251C162.689 103.251 163.973 101.966 163.973 100.39C163.973 98.8125 162.689 97.5282 161.112 97.5282Z" fill="#99BBDD"/>
<path d="M74.3758 152.891C74.308 152.891 74.2403 152.885 74.1694 152.873L70.458 152.167C70.033 152.087 69.6942 151.764 69.5926 151.345L69.2568 149.971L76.0944 151.274L75.2782 152.429C75.0688 152.719 74.73 152.891 74.3758 152.891ZM70.4827 151.132C70.5012 151.2 70.5597 151.252 70.6274 151.265L74.3388 151.97C74.4097 151.982 74.4805 151.955 74.5236 151.899L70.4827 151.132Z" fill="#99BBDD"/>
<path d="M75.5708 152.053C75.4138 152.053 75.2536 152.038 75.0934 152.007L69.919 151.022C69.1922 150.883 68.5608 150.436 68.1912 149.793L66.9807 147.689C66.6789 147.162 66.5742 146.543 66.6881 145.946L67.7661 140.285L81.0409 142.813L79.9629 148.474C79.849 149.072 79.5256 149.608 79.0482 149.987L77.1509 151.496C76.6981 151.862 76.1406 152.053 75.5708 152.053ZM68.493 141.36L67.5875 146.121C67.5136 146.503 67.5813 146.901 67.7754 147.236L68.9858 149.34C69.223 149.75 69.6264 150.036 70.0915 150.125L75.2659 151.111C75.731 151.2 76.2115 151.08 76.5811 150.784L78.4784 149.275C78.7833 149.032 78.9896 148.69 79.0636 148.308L79.9691 143.546L68.493 141.36Z" fill="#99BBDD"/>
<path d="M80.4465 143.608C80.3603 143.608 80.271 143.602 80.1816 143.587C76.1314 143.38 72.112 142.617 68.2312 141.311C67.4304 141.141 66.8791 140.38 66.9654 139.564C67.3504 135.982 66.5834 134.609 65.4223 132.526C64.8525 131.504 64.2057 130.343 63.5466 128.701L63.5096 128.612C63.4757 128.526 63.4418 128.436 63.408 128.35L63.3802 128.276C63.3494 128.196 63.3217 128.116 63.294 128.036C63.2817 128.002 63.2694 127.968 63.257 127.931C63.2262 127.845 63.1985 127.759 63.1708 127.672L63.1523 127.614C63.1184 127.512 63.0876 127.407 63.0568 127.303L63.0291 127.204C63.0076 127.124 62.9829 127.044 62.9614 126.964L62.9367 126.872C62.909 126.767 62.8813 126.662 62.8566 126.554L62.8382 126.48C62.8166 126.394 62.7981 126.308 62.7796 126.222L62.7581 126.12C62.7365 126.025 62.718 125.929 62.6996 125.831L62.6903 125.787C62.6688 125.68 62.6503 125.569 62.6318 125.461L62.6164 125.365C62.6041 125.279 62.5887 125.193 62.5764 125.107L62.564 125.02C62.5486 124.91 62.5363 124.799 62.5209 124.688L62.5148 124.617C62.5055 124.525 62.4963 124.435 62.487 124.343L62.4778 124.244C62.4686 124.14 62.4593 124.035 62.4532 123.93L62.4501 123.902C62.4439 123.788 62.4378 123.675 62.4316 123.561L62.4285 123.465C62.4254 123.376 62.4224 123.283 62.4224 123.194V123.111C62.4224 122.997 62.4224 122.883 62.4224 122.769V122.698C62.4224 122.603 62.4254 122.51 62.4285 122.415L62.4316 122.319C62.4347 122.205 62.4408 122.094 62.447 121.981V121.968C62.4532 121.851 62.4624 121.734 62.4716 121.617L62.4809 121.522C62.4901 121.429 62.4994 121.334 62.5086 121.241L62.5178 121.164C62.5302 121.047 62.5456 120.93 62.561 120.816L62.5702 120.742C62.5825 120.647 62.5979 120.551 62.6133 120.456L62.6287 120.36C62.6472 120.243 62.6688 120.126 62.6903 120.006C62.715 119.877 62.7396 119.748 62.7673 119.621C62.7735 119.597 62.7796 119.572 62.7858 119.547L62.8012 119.483C62.8197 119.403 62.8382 119.319 62.8566 119.239C62.8659 119.209 62.872 119.175 62.8813 119.144L62.9028 119.064C62.9213 118.996 62.9367 118.928 62.9552 118.86C62.9644 118.824 62.9737 118.79 62.986 118.756L63.0106 118.666C63.026 118.608 63.0445 118.546 63.0599 118.488C63.0722 118.448 63.0846 118.411 63.0969 118.371L63.1184 118.303C63.1369 118.241 63.1554 118.18 63.1739 118.121C63.1862 118.081 63.2016 118.038 63.2139 117.998L63.2355 117.933C63.254 117.875 63.2755 117.816 63.294 117.758C63.3094 117.715 63.3248 117.672 63.3402 117.628L63.3587 117.579C63.3802 117.518 63.4018 117.459 63.4264 117.397C63.4449 117.351 63.4634 117.305 63.4819 117.259L63.4911 117.234C63.5158 117.17 63.5404 117.108 63.5681 117.043C63.5897 116.994 63.6082 116.945 63.6297 116.892L63.6359 116.88C63.6605 116.818 63.6882 116.757 63.716 116.692C63.7406 116.637 63.7622 116.584 63.7868 116.532C63.8145 116.47 63.8422 116.409 63.87 116.347C63.8946 116.295 63.9192 116.239 63.9439 116.187C63.9716 116.125 64.0024 116.067 64.0301 116.005C64.0548 115.953 64.0825 115.901 64.1102 115.848C64.141 115.79 64.1718 115.731 64.2026 115.67C64.2303 115.617 64.258 115.565 64.2858 115.516C64.3166 115.457 64.3504 115.399 64.3812 115.34C64.409 115.288 64.4398 115.238 64.4675 115.186C64.5014 115.128 64.5322 115.072 64.566 115.014C64.5968 114.964 64.6246 114.912 64.6554 114.863C64.6892 114.807 64.7231 114.752 64.7601 114.693C64.7909 114.644 64.8217 114.595 64.8525 114.545C64.8894 114.49 64.9233 114.435 64.9603 114.379C64.9911 114.33 65.025 114.281 65.0558 114.234C65.0927 114.179 65.1297 114.127 65.1666 114.071L65.179 114.053C65.2067 114.013 65.2375 113.969 65.2652 113.929C65.3022 113.877 65.3391 113.828 65.3761 113.778L65.4007 113.748C65.4284 113.711 65.4562 113.671 65.4839 113.634C65.5208 113.584 65.5547 113.538 65.5917 113.492L65.6317 113.44C65.6564 113.406 65.6841 113.372 65.7087 113.341C65.7457 113.295 65.7826 113.249 65.8196 113.203L65.8627 113.15C65.8874 113.119 65.9151 113.085 65.9397 113.055C65.9767 113.012 66.0136 112.968 66.0475 112.925L66.0999 112.864C66.1245 112.833 66.1492 112.805 66.1738 112.774C66.2138 112.728 66.2539 112.682 66.2939 112.639L66.3432 112.583C66.3678 112.556 66.3925 112.528 66.4171 112.5C66.4572 112.457 66.4972 112.414 66.5372 112.371L66.5988 112.303C66.6204 112.279 66.642 112.254 66.6666 112.232C66.719 112.177 66.7713 112.125 66.8237 112.069L66.8668 112.023C66.8853 112.004 66.9038 111.986 66.9192 111.967C67.0054 111.881 67.0916 111.795 67.181 111.712C67.1933 111.699 67.2087 111.687 67.221 111.675L67.2456 111.653C67.3134 111.589 67.3812 111.527 67.4489 111.462C67.4705 111.441 67.4951 111.419 67.5198 111.401L67.5875 111.339C67.6337 111.299 67.6768 111.259 67.723 111.219C67.7508 111.194 67.7754 111.173 67.8031 111.148L67.8709 111.09C67.914 111.053 67.9571 111.016 68.0002 110.982C68.031 110.957 68.0618 110.933 68.0896 110.908L68.1573 110.852C68.1974 110.819 68.2405 110.785 68.2836 110.751C68.3144 110.726 68.3483 110.702 68.3791 110.677L68.4438 110.628C68.4869 110.594 68.53 110.56 68.5731 110.526C68.6101 110.498 68.644 110.474 68.6809 110.446L68.7271 110.412C68.7733 110.378 68.8195 110.344 68.8657 110.31C68.9027 110.283 68.9396 110.258 68.9766 110.23L69.0228 110.196C69.069 110.163 69.1152 110.132 69.1645 110.098C69.2076 110.07 69.2476 110.042 69.2908 110.012L69.3092 109.999C69.3647 109.962 69.417 109.928 69.4694 109.895C69.5156 109.864 69.5618 109.836 69.608 109.805L69.6172 109.799C69.6696 109.765 69.725 109.731 69.7774 109.697C69.8267 109.667 69.879 109.636 69.9283 109.605C69.9838 109.571 70.0361 109.54 70.0916 109.507C70.1408 109.476 70.1932 109.448 70.2456 109.417C70.301 109.386 70.3564 109.356 70.4088 109.325C70.4612 109.297 70.5135 109.269 70.5628 109.239C70.6182 109.208 70.6737 109.18 70.7291 109.149C70.7815 109.122 70.8338 109.094 70.8862 109.069C70.9416 109.041 70.9971 109.014 71.0556 108.983C71.108 108.955 71.1603 108.931 71.2158 108.906C71.2712 108.878 71.3297 108.85 71.3852 108.826C71.4375 108.801 71.493 108.777 71.5453 108.752C71.6038 108.727 71.6593 108.7 71.7178 108.675C71.7732 108.65 71.8256 108.629 71.881 108.604C71.9396 108.579 71.9981 108.555 72.0566 108.53L72.0658 108.527C72.1182 108.506 72.1706 108.484 72.2229 108.462C72.2814 108.438 72.34 108.416 72.3985 108.395L72.4108 108.388C72.4632 108.37 72.5124 108.348 72.5648 108.33C72.6233 108.308 72.6818 108.287 72.7404 108.268L72.7681 108.259C72.8143 108.241 72.8636 108.225 72.9098 108.21C72.9621 108.191 73.0145 108.176 73.0638 108.157L73.1254 108.136C73.1685 108.121 73.2147 108.105 73.2578 108.093C73.3071 108.077 73.3594 108.062 73.4118 108.047L73.4857 108.025C73.5288 108.013 73.5689 108 73.612 107.988C73.6613 107.973 73.7136 107.96 73.7629 107.945L73.8461 107.92C73.8861 107.908 73.9262 107.899 73.9662 107.886C74.0155 107.874 74.0617 107.862 74.111 107.849L74.2095 107.825C74.2465 107.816 74.2865 107.806 74.3235 107.797C74.3728 107.785 74.4251 107.772 74.4744 107.763L74.576 107.739C74.613 107.729 74.6469 107.723 74.6838 107.714C74.7424 107.702 74.804 107.689 74.8625 107.677L74.958 107.659C74.9888 107.652 75.0165 107.646 75.0473 107.64C75.1674 107.618 75.2875 107.597 75.4107 107.575C75.4415 107.569 75.4754 107.566 75.5062 107.56L75.6017 107.545C75.6602 107.535 75.7187 107.526 75.7772 107.517C75.8142 107.511 75.8542 107.508 75.8912 107.501L75.9928 107.489C76.0452 107.483 76.0976 107.477 76.1499 107.471C76.19 107.464 76.2331 107.461 76.2731 107.458L76.3748 107.449C76.424 107.443 76.4733 107.44 76.5226 107.434C76.5657 107.431 76.6088 107.428 76.652 107.424L76.7474 107.418C76.7967 107.415 76.8491 107.409 76.8984 107.406C76.9446 107.403 76.9908 107.4 77.04 107.397L77.117 107.394C77.1694 107.391 77.2248 107.387 77.2772 107.384C77.3265 107.381 77.3727 107.381 77.422 107.378L77.4836 107.375C77.5421 107.372 77.5975 107.372 77.656 107.372C77.7084 107.372 77.7638 107.372 77.8162 107.372H77.8593C77.9178 107.372 77.9764 107.372 78.0349 107.372C78.0934 107.372 78.1488 107.375 78.2074 107.375H78.2228C78.2874 107.375 78.3521 107.378 78.4168 107.381C78.4784 107.384 78.5431 107.387 78.6047 107.387C78.6694 107.391 78.734 107.394 78.7987 107.397C78.8634 107.4 78.925 107.406 78.9897 107.409C79.0544 107.412 79.119 107.418 79.1837 107.424C79.2484 107.431 79.31 107.437 79.3747 107.443C79.4394 107.449 79.504 107.455 79.5687 107.461C79.6334 107.468 79.695 107.477 79.7597 107.483L79.7997 107.486C79.8213 107.489 79.8398 107.489 79.8613 107.492C79.8798 107.495 79.8952 107.498 79.9137 107.498L79.9445 107.501C80.0276 107.514 80.1077 107.523 80.1909 107.535C80.2494 107.545 80.3079 107.554 80.3634 107.563C80.4434 107.575 80.5235 107.588 80.6005 107.603L80.6282 107.609C80.6775 107.618 80.7268 107.628 80.7761 107.637L80.8377 107.649C80.8808 107.659 80.9208 107.665 80.964 107.674L81.0687 107.695C81.1056 107.702 81.1426 107.711 81.1796 107.717C81.2874 107.739 81.3952 107.763 81.4999 107.791L81.5707 107.806C89.2245 109.645 94.285 116.926 93.3425 124.74L93.3332 124.814C93.3209 124.919 93.3055 125.024 93.2901 125.128C93.284 125.174 93.2747 125.221 93.2686 125.27C93.2562 125.356 93.2408 125.439 93.2285 125.523C93.2193 125.581 93.207 125.64 93.1977 125.698L93.1916 125.738C93.1885 125.76 93.1854 125.778 93.1792 125.8C93.1731 125.827 93.1669 125.855 93.1638 125.88L93.1546 125.929C93.1423 125.991 93.13 126.049 93.1176 126.111C93.1022 126.191 93.0838 126.268 93.0653 126.348L93.0591 126.379C93.0499 126.425 93.0376 126.471 93.0283 126.514C93.0068 126.604 92.9852 126.69 92.9636 126.779L92.9544 126.822C92.9482 126.844 92.9421 126.868 92.9359 126.89L92.902 127.016C92.8743 127.115 92.8466 127.213 92.8189 127.312L92.8066 127.355C92.7758 127.463 92.7419 127.568 92.708 127.675L92.6803 127.762C92.6464 127.866 92.6125 127.968 92.5756 128.073L92.5509 128.141C92.5201 128.23 92.4862 128.322 92.4524 128.412L92.4246 128.482C92.3846 128.584 92.3446 128.683 92.3045 128.784L92.2706 128.867C92.2306 128.966 92.1875 129.068 92.1444 129.166L92.1259 129.206C92.0858 129.299 92.0427 129.388 91.9996 129.48L91.9626 129.56C91.9164 129.656 91.8702 129.751 91.824 129.847L91.7871 129.921C91.744 130.004 91.7008 130.087 91.6577 130.17L91.6269 130.226C91.5776 130.321 91.5253 130.414 91.4729 130.506L91.4267 130.586C91.3744 130.678 91.322 130.768 91.2666 130.86L91.2327 130.919C91.1865 130.996 91.1372 131.076 91.0879 131.153L91.0417 131.227C90.9863 131.313 90.9308 131.399 90.8723 131.485L90.82 131.562C90.7676 131.639 90.7152 131.719 90.6598 131.796L90.6228 131.849C90.5643 131.929 90.5058 132.012 90.4473 132.092L90.3888 132.169C90.3272 132.252 90.2656 132.332 90.204 132.412L90.1516 132.48C90.0992 132.548 90.0438 132.616 89.9914 132.684L89.9391 132.748C89.8744 132.825 89.8097 132.902 89.745 132.979L89.6804 133.056C89.6157 133.133 89.5479 133.207 89.4832 133.281L89.434 133.333C89.397 133.373 89.36 133.417 89.3231 133.457L89.2091 133.58C87.9894 134.876 86.9453 135.723 86.0244 136.472C84.1672 137.978 82.9382 138.976 81.9865 142.426C81.8079 143.131 81.158 143.605 80.4465 143.608ZM77.9887 108.299C77.9517 108.299 77.9178 108.299 77.8809 108.299H77.8378C77.7885 108.299 77.7392 108.299 77.6899 108.299C77.6376 108.299 77.5821 108.302 77.5298 108.302L77.4682 108.305C77.425 108.305 77.3788 108.308 77.3357 108.308C77.2864 108.311 77.2372 108.315 77.1879 108.315L77.1109 108.318C77.0678 108.321 77.0246 108.321 76.9815 108.324C76.9353 108.327 76.8891 108.33 76.8429 108.333L76.7444 108.339C76.7043 108.342 76.6674 108.345 76.6273 108.348C76.5811 108.352 76.538 108.358 76.4918 108.361L76.3871 108.37C76.3501 108.373 76.3132 108.376 76.2762 108.382C76.23 108.388 76.1807 108.395 76.1345 108.401L76.0298 108.413C75.9959 108.416 75.962 108.422 75.9282 108.425C75.8727 108.432 75.8204 108.441 75.7649 108.45L75.6633 108.465C75.6356 108.469 75.6078 108.475 75.5801 108.478C75.4662 108.496 75.3522 108.518 75.2382 108.539C75.2136 108.546 75.189 108.549 75.1643 108.555L75.0627 108.576C75.0072 108.589 74.9518 108.598 74.8964 108.61C74.8656 108.616 74.8348 108.626 74.804 108.632L74.6962 108.656C74.65 108.666 74.6038 108.678 74.5576 108.687C74.5237 108.696 74.4898 108.703 74.4559 108.712L74.3543 108.737C74.3112 108.749 74.265 108.758 74.2218 108.77C74.1849 108.78 74.151 108.789 74.114 108.801L74.0278 108.826C73.9816 108.838 73.9354 108.85 73.8892 108.866C73.8522 108.878 73.8122 108.887 73.7752 108.9L73.6982 108.924C73.652 108.94 73.6028 108.952 73.5566 108.968C73.5165 108.98 73.4734 108.995 73.4334 109.008L73.3718 109.029C73.3225 109.045 73.2763 109.06 73.227 109.078C73.1839 109.094 73.1377 109.109 73.0946 109.125L73.0699 109.134C73.0114 109.155 72.956 109.174 72.9005 109.195C72.8512 109.214 72.805 109.232 72.7588 109.251L72.7465 109.257C72.6911 109.279 72.6356 109.3 72.5802 109.322C72.5309 109.34 72.4816 109.362 72.4324 109.383L72.4262 109.386C72.3708 109.408 72.3153 109.433 72.263 109.454C72.2106 109.476 72.1613 109.497 72.109 109.522C72.0535 109.547 72.0012 109.571 71.9457 109.593C71.8964 109.614 71.8441 109.639 71.7948 109.664C71.7424 109.688 71.687 109.713 71.6346 109.741C71.5854 109.765 71.533 109.79 71.4837 109.815C71.4314 109.842 71.379 109.867 71.3236 109.895C71.2743 109.919 71.225 109.947 71.1757 109.972C71.1234 109.999 71.071 110.027 71.0186 110.055C70.9694 110.082 70.9201 110.107 70.8708 110.135C70.8184 110.163 70.7661 110.193 70.7168 110.221C70.6675 110.249 70.6213 110.277 70.572 110.304C70.5197 110.335 70.4704 110.366 70.418 110.397C70.3718 110.424 70.3226 110.455 70.2764 110.483C70.2271 110.514 70.1747 110.548 70.1254 110.578L70.1162 110.585C70.0731 110.612 70.03 110.64 69.9868 110.668C69.9376 110.698 69.8883 110.732 69.8421 110.763L69.8205 110.779C69.7805 110.803 69.7435 110.831 69.7035 110.859C69.6604 110.889 69.6142 110.92 69.571 110.951L69.5248 110.985C69.491 111.01 69.454 111.034 69.4201 111.059C69.377 111.09 69.3339 111.124 69.2908 111.154L69.2415 111.191C69.2076 111.216 69.1768 111.241 69.1429 111.265C69.1029 111.296 69.0628 111.327 69.0228 111.358L68.9581 111.407C68.9304 111.428 68.8996 111.45 68.8719 111.475C68.8318 111.505 68.7949 111.536 68.7579 111.567L68.6871 111.626C68.6594 111.647 68.6316 111.669 68.607 111.693C68.567 111.727 68.5269 111.761 68.49 111.795L68.4191 111.857C68.3945 111.878 68.3729 111.897 68.3483 111.918C68.3052 111.955 68.2651 111.992 68.222 112.029L68.1512 112.094C68.1327 112.112 68.1111 112.128 68.0926 112.146C68.028 112.205 67.9664 112.266 67.9017 112.325L67.8401 112.38C67.7569 112.46 67.6768 112.54 67.5937 112.62C67.5783 112.636 67.5629 112.651 67.5506 112.667L67.5013 112.716C67.452 112.765 67.4027 112.818 67.3534 112.867C67.335 112.888 67.3165 112.907 67.2949 112.928L67.2272 112.999C67.1902 113.039 67.1532 113.079 67.1163 113.119C67.0947 113.144 67.0732 113.169 67.0516 113.193L66.9992 113.252C66.9623 113.295 66.9253 113.335 66.8884 113.378C66.8668 113.403 66.8452 113.43 66.8206 113.458L66.7652 113.523C66.7313 113.563 66.6974 113.603 66.6635 113.643C66.6389 113.671 66.6173 113.701 66.5927 113.729L66.5496 113.782C66.5157 113.825 66.4787 113.868 66.4448 113.911C66.4202 113.942 66.3986 113.973 66.374 114.003L66.334 114.056C66.3001 114.099 66.2662 114.145 66.2323 114.188C66.2077 114.222 66.18 114.259 66.1553 114.296L66.1307 114.33C66.0968 114.376 66.0629 114.425 66.029 114.471C66.0013 114.508 65.9767 114.548 65.949 114.585L65.9366 114.604C65.9028 114.653 65.8658 114.706 65.8319 114.758C65.8011 114.804 65.7703 114.85 65.7426 114.893C65.7087 114.946 65.6748 114.998 65.641 115.051C65.6102 115.097 65.5824 115.143 65.5547 115.189C65.5208 115.241 65.49 115.294 65.4562 115.346C65.4284 115.392 65.4007 115.442 65.373 115.488C65.3422 115.54 65.3114 115.596 65.2806 115.648C65.2529 115.694 65.2252 115.744 65.2005 115.793C65.1697 115.848 65.1389 115.901 65.1112 115.956C65.0866 116.005 65.0588 116.055 65.0342 116.101C65.0065 116.156 64.9757 116.212 64.948 116.267C64.9233 116.316 64.8987 116.366 64.874 116.415C64.8463 116.47 64.8186 116.529 64.7909 116.584C64.7662 116.634 64.7447 116.683 64.72 116.735C64.6923 116.794 64.6677 116.849 64.64 116.908C64.6184 116.957 64.5938 117.009 64.5722 117.059C64.5476 117.117 64.5229 117.176 64.4983 117.234L64.4921 117.247C64.4736 117.293 64.4521 117.339 64.4336 117.385C64.409 117.444 64.3874 117.505 64.3628 117.564L64.3535 117.588C64.3381 117.632 64.3196 117.675 64.3042 117.718C64.2827 117.773 64.2611 117.832 64.2426 117.887L64.2242 117.94C64.2088 117.98 64.1964 118.017 64.181 118.057C64.1626 118.112 64.1441 118.167 64.1256 118.22L64.104 118.285C64.0917 118.321 64.0794 118.358 64.0671 118.395C64.0486 118.451 64.0301 118.509 64.0147 118.565L63.9932 118.636C63.9808 118.67 63.9716 118.706 63.9624 118.74C63.947 118.796 63.9316 118.851 63.9162 118.904L63.8915 118.996C63.8823 119.027 63.873 119.058 63.8638 119.088C63.8484 119.15 63.8299 119.215 63.8145 119.276L63.793 119.359C63.7868 119.387 63.7776 119.415 63.7714 119.443C63.7529 119.517 63.7375 119.594 63.719 119.671L63.7036 119.741C63.6975 119.763 63.6944 119.781 63.6882 119.803C63.6636 119.923 63.639 120.043 63.6143 120.166C63.5928 120.277 63.5743 120.388 63.5558 120.499L63.5404 120.588C63.525 120.678 63.5127 120.767 63.5004 120.856L63.4911 120.927C63.4757 121.038 63.4634 121.146 63.4511 121.257L63.4418 121.331C63.4326 121.42 63.4234 121.506 63.4141 121.596L63.4049 121.685C63.3956 121.796 63.3864 121.904 63.3802 122.014V122.027C63.3741 122.131 63.3679 122.239 63.3648 122.344L63.3618 122.433C63.3587 122.523 63.3556 122.612 63.3556 122.698V122.766C63.3556 122.874 63.3556 122.982 63.3556 123.089V123.166C63.3556 123.253 63.3587 123.339 63.3618 123.422L63.3648 123.511C63.3679 123.619 63.3741 123.727 63.3802 123.832L63.3833 123.856C63.3895 123.958 63.3987 124.056 63.4049 124.155L63.4141 124.247C63.4234 124.334 63.4295 124.42 63.4388 124.506L63.4449 124.574C63.4572 124.679 63.4696 124.783 63.485 124.885L63.4973 124.968C63.5096 125.048 63.5219 125.131 63.5342 125.211L63.5496 125.304C63.5681 125.405 63.5835 125.51 63.6051 125.612L63.6143 125.652C63.6328 125.744 63.6513 125.834 63.6698 125.923L63.6913 126.018C63.7098 126.098 63.7283 126.182 63.7468 126.262L63.7622 126.333C63.7868 126.431 63.8114 126.533 63.8392 126.631L63.8638 126.718C63.8854 126.791 63.9038 126.868 63.9254 126.942L63.9531 127.035C63.9808 127.133 64.0116 127.229 64.0424 127.327L64.0609 127.383C64.0886 127.463 64.1133 127.546 64.141 127.626C64.1533 127.66 64.1626 127.691 64.1749 127.722C64.2026 127.799 64.2303 127.873 64.258 127.95L64.2827 128.02C64.3135 128.104 64.3443 128.187 64.3782 128.267L64.412 128.353C65.0465 129.942 65.6779 131.073 66.2354 132.074C67.4366 134.227 68.3052 135.785 67.8894 139.657C67.8524 140.014 68.0957 140.347 68.4499 140.414L68.4807 140.42L68.5115 140.43C72.3307 141.717 76.2885 142.469 80.271 142.669L80.3018 142.672L80.3326 142.678C80.6868 142.746 81.0348 142.527 81.1303 142.182C82.159 138.449 83.5512 137.319 85.4731 135.76C86.3724 135.03 87.3888 134.205 88.5685 132.951L88.6763 132.834C88.7132 132.797 88.7471 132.757 88.781 132.72L88.8272 132.671C88.8919 132.6 88.9535 132.53 89.0151 132.459L89.0767 132.388C89.1383 132.317 89.1999 132.243 89.2584 132.169L89.3077 132.108C89.36 132.046 89.4093 131.981 89.4586 131.917L89.5079 131.852C89.5664 131.775 89.6249 131.701 89.6804 131.624L89.7358 131.55C89.7912 131.476 89.8467 131.399 89.899 131.322L89.9329 131.273C89.9822 131.199 90.0346 131.128 90.0838 131.054L90.1331 130.98C90.1855 130.9 90.2409 130.817 90.2933 130.737L90.3364 130.669C90.3826 130.595 90.4288 130.521 90.4719 130.447L90.5058 130.392C90.5551 130.309 90.6044 130.223 90.6536 130.136L90.6968 130.059C90.746 129.973 90.7953 129.884 90.8415 129.798L90.8692 129.745C90.9093 129.668 90.9524 129.588 90.9894 129.511L91.0232 129.443C91.0694 129.354 91.1126 129.265 91.1557 129.172L91.1896 129.098C91.2296 129.012 91.2696 128.926 91.3066 128.84L91.322 128.803C91.362 128.71 91.4021 128.615 91.4421 128.522L91.4729 128.445C91.513 128.35 91.5499 128.258 91.5869 128.162L91.6115 128.097C91.6423 128.014 91.6762 127.928 91.7039 127.842L91.7255 127.78C91.7594 127.685 91.7932 127.586 91.824 127.488L91.8487 127.407C91.8795 127.309 91.9134 127.207 91.9411 127.106L91.9534 127.066C91.9811 126.973 92.0058 126.881 92.0335 126.788L92.0674 126.668C92.0704 126.65 92.0766 126.634 92.0797 126.619L92.092 126.567C92.1136 126.483 92.1351 126.4 92.1536 126.317C92.1628 126.274 92.1721 126.234 92.1813 126.191L92.1875 126.16C92.206 126.086 92.2214 126.012 92.2368 125.935C92.2491 125.877 92.2614 125.821 92.2706 125.766L92.283 125.71C92.286 125.689 92.2922 125.667 92.2953 125.646C92.2984 125.63 92.3014 125.615 92.3045 125.6L92.3138 125.55C92.323 125.495 92.3322 125.442 92.3415 125.387C92.3538 125.307 92.3692 125.227 92.3815 125.147C92.3877 125.104 92.3938 125.057 92.4031 125.014C92.4185 124.916 92.4308 124.817 92.4431 124.719L92.4524 124.648C93.3394 117.293 88.5777 110.443 81.3736 108.712L81.3058 108.696C81.2042 108.672 81.1056 108.65 81.004 108.629C80.9701 108.623 80.9393 108.616 80.9054 108.607L80.7915 108.583C80.7545 108.576 80.7176 108.567 80.6806 108.561L80.6221 108.552C80.5759 108.542 80.5297 108.536 80.4835 108.527L80.4558 108.521C80.3818 108.509 80.3048 108.496 80.2309 108.484C80.1755 108.475 80.1231 108.469 80.0677 108.459C79.9907 108.447 79.9137 108.438 79.8336 108.425L79.6611 108.404C79.6026 108.398 79.541 108.388 79.4794 108.382C79.4178 108.376 79.3593 108.37 79.2977 108.364C79.2392 108.358 79.1776 108.352 79.119 108.348C79.0574 108.342 78.9989 108.339 78.9373 108.336C78.8788 108.333 78.8172 108.327 78.7587 108.324C78.6971 108.321 78.6386 108.318 78.577 108.315C78.5184 108.311 78.4568 108.308 78.3983 108.308C78.3367 108.305 78.2782 108.305 78.2166 108.305H78.2012C78.1488 108.305 78.0934 108.302 78.041 108.302C78.0256 108.299 78.0072 108.299 77.9887 108.299Z" fill="#99BBDD"/>
<path d="M76.7567 142.878L75.8574 142.706C75.8635 142.669 76.5627 139.043 77.576 135.252C78.1735 133.019 78.7618 131.162 79.3285 129.736C79.3563 129.665 79.384 129.594 79.4148 129.523C78.3922 129.446 77.1387 129.212 75.6017 128.741C75.2044 128.618 74.8317 128.491 74.4899 128.365C74.5114 128.996 74.4837 129.686 74.4005 130.429C73.3287 140.171 72.9252 142.093 72.9098 142.17L72.0135 141.976C72.0166 141.957 72.4263 139.974 73.4889 130.327C73.5905 129.415 73.5997 128.636 73.5443 127.974C71.1973 126.902 70.4982 125.713 70.7045 124.851C70.8493 124.247 71.4468 123.893 72.1275 124.013C72.8698 124.142 73.5381 124.768 73.9601 125.732C74.1665 126.203 74.3112 126.739 74.4005 127.343C74.8287 127.518 75.3184 127.694 75.8697 127.863C77.4621 128.353 78.7649 128.581 79.8029 128.627C80.3727 127.401 80.924 126.625 81.4691 126.271C82.3901 125.673 83.1508 125.873 83.5574 126.258C84.044 126.72 84.1118 127.469 83.7329 128.119C83.4927 128.528 82.6826 129.489 80.3942 129.548C79.8521 130.82 79.2053 132.702 78.46 135.486C77.4528 139.247 76.7629 142.841 76.7567 142.878ZM82.6087 126.81C82.4239 126.81 82.2022 126.887 81.9681 127.041C81.7155 127.207 81.3305 127.617 80.8254 128.615C81.9866 128.513 82.6703 128.125 82.9414 127.66C83.1293 127.343 83.0677 127.062 82.9229 126.924C82.8459 126.847 82.735 126.81 82.6087 126.81ZM71.8657 124.909C71.7425 124.909 71.6224 124.949 71.5947 125.069C71.5177 125.384 71.9335 126.101 73.3718 126.871C73.0638 125.605 72.4694 125.008 71.9704 124.922C71.9365 124.912 71.9027 124.909 71.8657 124.909Z" fill="#99BBDD"/>
<path d="M68.0148 141.731L67.7336 142.602L79.8147 146.504L80.0959 145.634L68.0148 141.731Z" fill="#99BBDD"/>
<path d="M67.7699 143.006L67.4886 143.876L79.5697 147.779L79.8509 146.909L67.7699 143.006Z" fill="#99BBDD"/>
<path d="M67.5275 144.281L67.2463 145.152L79.3273 149.055L79.6086 148.184L67.5275 144.281Z" fill="#99BBDD"/>
<path d="M67.285 145.555L67.0038 146.426L78.5191 150.146L78.8003 149.275L67.285 145.555Z" fill="#99BBDD"/>
<path d="M95.4076 125.751L95.2366 126.649L100.008 127.558L100.179 126.659L95.4076 125.751Z" fill="#99BBDD"/>
<path d="M99.088 115.054L94.5016 116.653L94.8027 117.517L99.3892 115.918L99.088 115.054Z" fill="#99BBDD"/>
<path d="M92.3262 105.547L89.1538 109.225L89.8465 109.822L93.0189 106.144L92.3262 105.547Z" fill="#99BBDD"/>
<path d="M81.7184 100.687L80.8096 105.458L81.7082 105.629L82.617 100.858L81.7184 100.687Z" fill="#99BBDD"/>
<path d="M70.9658 101.473L70.1021 101.774L71.7009 106.36L72.5647 106.059L70.9658 101.473Z" fill="#99BBDD"/>
<path d="M61.1852 107.845L60.5876 108.538L64.2654 111.711L64.863 111.018L61.1852 107.845Z" fill="#99BBDD"/>
<path d="M55.8955 118.256L55.7244 119.155L60.4957 120.064L60.6669 119.165L55.8955 118.256Z" fill="#99BBDD"/>
<path d="M183.279 137.309L167.894 134.273L160.48 108.428L182.348 111.185L183.279 137.309ZM168.621 133.484L182.324 136.188L181.464 111.998L161.746 109.512L168.621 133.484Z" fill="#99BBDD"/>
<path d="M185.148 137.235L184.005 111.123L205.587 106.645L200.243 132.994L185.148 137.235ZM184.954 111.862L186.01 136.043L199.455 132.264L204.413 107.824L184.954 111.862Z" fill="#99BBDD"/>
<path d="M182.462 137.22L181.431 111.154L184.92 111.015L185.952 137.081L182.462 137.22ZM182.382 112.032L183.343 136.268L185.003 136.203L184.042 111.967L182.382 112.032Z" fill="#99BBDD"/>
<path d="M182.736 111.561L182.662 109.654L182.86 109.509C182.924 109.46 184.504 108.327 187.563 107.273C190.366 106.309 195.001 105.24 201.167 105.619L201.29 105.625L203.225 106.928L202.713 107.686L200.985 106.522C195.053 106.177 190.6 107.199 187.902 108.12C185.558 108.921 184.098 109.787 183.593 110.113L183.648 111.517L182.736 111.561Z" fill="#99BBDD"/>
<path d="M182.736 111.561L182.681 110.156C182.154 109.873 180.63 109.124 178.227 108.511C175.465 107.806 170.943 107.138 165.057 107.951L163.428 109.247L162.858 108.53L164.685 107.076L164.808 107.058C170.925 106.195 175.631 106.894 178.501 107.63C181.634 108.437 183.297 109.445 183.368 109.485L183.577 109.611L183.651 111.517L182.736 111.561Z" fill="#99BBDD"/>
<path d="M183.568 110.008L182.687 109.762C182.736 109.583 183.993 105.367 192.368 104.427C200.243 103.543 202.501 102.086 202.522 102.074L203.85 101.187L203.197 102.641L201.558 106.269L200.724 105.893L201.854 103.392C200.453 103.934 197.637 104.757 192.472 105.336C188.428 105.792 186.22 107.045 185.077 108.018C183.858 109.053 183.571 109.999 183.568 110.008Z" fill="#99BBDD"/>
<path d="M184.57 113.758L181.961 113.862L181.997 114.776L184.607 114.672L184.57 113.758Z" fill="#99BBDD"/>
<path d="M184.647 115.901L182.038 116.006L182.074 116.92L184.684 116.815L184.647 115.901Z" fill="#99BBDD"/>
<path d="M185.311 133.062L182.7 133.147L182.73 134.061L185.34 133.976L185.311 133.062Z" fill="#99BBDD"/>
<path d="M185.24 130.924L182.63 131.009L182.659 131.924L185.27 131.838L185.24 130.924Z" fill="#99BBDD"/>
<path d="M184.132 110.547C184.4 110.344 184.689 110.171 184.979 110.002C185.271 109.836 185.57 109.685 185.875 109.54C186.485 109.254 187.11 109.007 187.745 108.792L188.225 108.638C188.385 108.585 188.545 108.542 188.709 108.496C189.032 108.407 189.355 108.32 189.685 108.246C190.011 108.166 190.341 108.111 190.671 108.046C191.003 107.994 191.333 107.945 191.668 107.911C191.351 108.022 191.028 108.111 190.711 108.209L190.233 108.357C190.073 108.407 189.913 108.45 189.756 108.502C189.599 108.554 189.439 108.604 189.278 108.65C189.118 108.696 188.961 108.751 188.804 108.804C188.487 108.902 188.173 109.01 187.859 109.115C187.23 109.331 186.605 109.549 185.983 109.786C185.361 110.03 184.742 110.273 184.132 110.547Z" fill="#99BBDD"/>
<path d="M189.74 109.34C190.563 108.939 191.428 108.631 192.3 108.363C193.175 108.095 194.062 107.873 194.958 107.692C195.183 107.649 195.408 107.609 195.632 107.565L195.971 107.507L196.31 107.455L196.988 107.356C197.216 107.328 197.44 107.304 197.668 107.279C198.121 107.224 198.58 107.199 199.033 107.168C199.147 107.162 199.261 107.156 199.375 107.153L199.716 107.144C199.944 107.137 200.172 107.134 200.4 107.134C199.951 107.211 199.498 107.267 199.048 107.338L198.374 107.439C198.263 107.458 198.149 107.47 198.038 107.488L197.702 107.544C197.477 107.581 197.256 107.618 197.031 107.652L196.362 107.772L196.027 107.83L195.694 107.895C195.472 107.938 195.247 107.978 195.026 108.024C194.136 108.203 193.252 108.4 192.371 108.616C191.493 108.838 190.615 109.069 189.74 109.34Z" fill="#99BBDD"/>
<path d="M182.853 110.384C182.154 110.217 181.464 110.036 180.771 109.854L178.705 109.303L176.635 108.757L174.556 108.234C175.274 108.271 175.988 108.369 176.693 108.499C177.399 108.631 178.101 108.788 178.794 108.973C179.487 109.158 180.174 109.367 180.851 109.601C181.529 109.829 182.2 110.082 182.853 110.384Z" fill="#99BBDD"/>
<path d="M179.108 110.298C178.116 110.141 177.128 109.971 176.142 109.799L174.664 109.54L173.925 109.411L173.185 109.284C172.693 109.198 172.2 109.112 171.704 109.035C171.457 108.995 171.211 108.949 170.965 108.912C170.718 108.875 170.472 108.835 170.222 108.792C169.234 108.638 168.245 108.493 167.247 108.357C168.251 108.351 169.258 108.422 170.256 108.527C170.755 108.579 171.254 108.644 171.753 108.715C172.003 108.748 172.249 108.789 172.498 108.829L173.241 108.949C173.734 109.038 174.229 109.127 174.722 109.226C174.969 109.275 175.215 109.328 175.458 109.38C175.705 109.429 175.948 109.485 176.194 109.543C177.171 109.759 178.147 110.002 179.108 110.298Z" fill="#99BBDD"/>
<path d="M250.536 128.685C249.745 124.247 245.488 121.281 241.053 122.076L240.893 121.173C245.827 120.292 250.558 123.591 251.439 128.525L250.536 128.685Z" fill="#99BBDD"/>
<path d="M247.783 129.431C247.521 127.962 246.702 126.683 245.479 125.83C244.256 124.977 242.772 124.651 241.303 124.912L241.142 124.01C242.852 123.705 244.577 124.084 246.003 125.076C247.426 126.067 248.38 127.558 248.685 129.264L247.783 129.431Z" fill="#99BBDD"/>
<path d="M245.032 130.176C244.891 129.388 244.453 128.704 243.797 128.245C243.141 127.786 242.347 127.613 241.558 127.752L241.398 126.85C242.427 126.665 243.465 126.893 244.321 127.49C245.177 128.088 245.75 128.984 245.935 130.01L245.032 130.176Z" fill="#99BBDD"/>
<path d="M243.363 130.857C243.003 131.371 242.294 131.497 241.78 131.14C241.266 130.78 241.139 130.071 241.497 129.557C241.857 129.042 242.565 128.916 243.08 129.273C243.594 129.634 243.72 130.342 243.363 130.857Z" fill="#99BBDD"/>
<path d="M82.0666 222.481L81.4567 221.797C81.4906 221.766 84.9495 218.643 87.8323 213.502C90.4319 208.867 93.0776 201.607 91.091 193.15C89.8066 193.593 85.9813 195.118 82.3623 198.595C78.2997 202.501 73.6643 209.745 74.6592 222.102L73.7475 222.176C73.2947 216.561 73.9323 211.488 75.6417 207.096C77.0123 203.573 79.0728 200.48 81.7617 197.905C86.3416 193.519 91.1002 192.177 91.3004 192.124L91.7501 192.001L91.8641 192.454C92.8712 196.415 92.979 200.462 92.1905 204.478C91.5591 207.687 90.3579 210.884 88.6177 213.98C85.6579 219.244 82.2113 222.351 82.0666 222.481Z" fill="#99BBDD"/>
<path d="M78.7063 222.253L77.8192 222.025C77.8285 221.985 78.8602 218.015 80.7021 212.917C82.4022 208.205 85.165 201.531 88.6639 196.501L89.4154 197.025C82.8242 206.502 78.7463 222.096 78.7063 222.253Z" fill="#99BBDD"/>
<path d="M77.402 213.748L76.568 214.124L78.7904 219.058L79.6245 218.682L77.402 213.748Z" fill="#99BBDD"/>
<path d="M85.5876 211.647L80.3674 214.244L80.7749 215.063L85.995 212.466L85.5876 211.647Z" fill="#99BBDD"/>
<path d="M81.0164 204.763L80.1497 205.055L81.8662 210.142L82.733 209.849L81.0164 204.763Z" fill="#99BBDD"/>
<path d="M88.8096 201.901L84.2395 204.525L84.695 205.318L89.2651 202.694L88.8096 201.901Z" fill="#99BBDD"/>
<path d="M84.8963 198.156L84.03 198.45L85.3563 202.361L86.2226 202.068L84.8963 198.156Z" fill="#99BBDD"/>
<path d="M54.0279 212.978L53.5153 213.736L66.5046 222.525L67.0173 221.767L54.0279 212.978Z" fill="#99BBDD"/>
<path d="M66.3647 222.354C66.3401 222.308 63.8514 217.626 62.0989 210.49C61.0702 206.298 60.4912 202.088 60.3772 197.973C60.2355 192.823 60.8238 187.812 62.1297 183.075L62.2837 182.518L62.7919 182.795C62.912 182.859 65.7641 184.439 69.0844 187.843C71.0309 189.839 72.7342 192.053 74.1417 194.422C75.9004 197.382 77.2032 200.594 78.0133 203.964L77.1232 204.176C75.3429 196.756 71.4252 191.56 68.453 188.505C66.0259 186.01 63.8176 184.501 62.8566 183.897C60.1616 194.2 61.4275 203.884 62.9829 210.241C64.7046 217.275 67.147 221.874 67.1717 221.917L66.3647 222.354Z" fill="#99BBDD"/>
<path d="M73.0576 222.167C73.0545 222.124 72.7896 217.765 71.5946 211.402C70.4919 205.532 68.3513 196.704 64.4089 187.982L65.2436 187.606C69.2261 196.418 71.3882 205.328 72.5001 211.251C73.7044 217.67 73.9723 222.071 73.9723 222.117L73.0576 222.167Z" fill="#99BBDD"/>
<path d="M64.3587 190.826L63.7637 191.521L67.034 194.321L67.629 193.627L64.3587 190.826Z" fill="#99BBDD"/>
<path d="M68.7216 191.814L67.8635 196.676L68.7644 196.835L69.6225 191.973L68.7216 191.814Z" fill="#99BBDD"/>
<path d="M65.0431 198.123L64.5972 198.922L69.4512 201.632L69.8972 200.833L65.0431 198.123Z" fill="#99BBDD"/>
<path d="M71.9538 197.595L70.0314 203.989L70.9074 204.253L72.8298 197.858L71.9538 197.595Z" fill="#99BBDD"/>
<path d="M65.9072 205.379L65.4935 206.195L71.3256 209.152L71.7393 208.336L65.9072 205.379Z" fill="#99BBDD"/>
<path d="M74.4771 204.798L71.6431 211.283L72.4813 211.649L75.3153 205.164L74.4771 204.798Z" fill="#99BBDD"/>
<path d="M67.4733 213.526L67.0511 214.338L72.751 217.303L73.1731 216.491L67.4733 213.526Z" fill="#99BBDD"/>
<path d="M73.6865 216.726L72.7832 218.693L73.6145 219.075L74.5179 217.107L73.6865 216.726Z" fill="#99BBDD"/>
<path d="M59.5826 222.56C53.8784 220.13 51.0541 216.721 49.6927 214.291C48.202 211.633 48.0788 209.563 48.0726 209.474L48.048 208.999L48.5223 208.99C54.0509 208.891 58.0549 210.558 60.4388 211.971C63.0353 213.511 64.3104 215.067 64.3627 215.135L63.6513 215.711L64.0085 215.424L63.6543 215.714C63.642 215.698 62.4069 214.198 59.9368 212.741C57.7346 211.442 54.0817 209.92 49.0521 209.908C49.1722 210.638 49.5264 212.135 50.5212 213.893C51.8179 216.185 54.5067 219.404 59.946 221.723L59.5826 222.56Z" fill="#99BBDD"/>
<path d="M55.871 211.839L55.0581 212.258L56.9889 216L57.8018 215.58L55.871 211.839Z" fill="#99BBDD"/>
<path d="M55.4953 216.734L55.4413 217.647L59.8318 217.907L59.8859 216.994L55.4953 216.734Z" fill="#99BBDD"/>
<path d="M61.335 215.263L60.4813 215.591L61.9136 219.311L62.7672 218.982L61.335 215.263Z" fill="#99BBDD"/>
<path d="M63.9589 219.858L60.8013 220.663L61.0272 221.549L64.1849 220.744L63.9589 219.858Z" fill="#99BBDD"/>
<path d="M244.316 210.937L240.315 215.2L240.982 215.826L244.983 211.563L244.316 210.937Z" fill="#99BBDD"/>
<path d="M236.61 215.492L235.943 216.118L240.104 220.547L240.771 219.92L236.61 215.492Z" fill="#99BBDD"/>
<path d="M243.718 219.906L240.907 222.325L241.504 223.019L244.315 220.599L243.718 219.906Z" fill="#99BBDD"/>
<path d="M224.679 211.741L224.458 212.629L229.166 213.798L229.387 212.911L224.679 211.741Z" fill="#99BBDD"/>
<path d="M230.988 211.149L230.306 216.25L231.213 216.372L231.895 211.271L230.988 211.149Z" fill="#99BBDD"/>
<path d="M228.185 217.595L227.916 218.469L231.916 219.701L232.185 218.826L228.185 217.595Z" fill="#99BBDD"/>
<path d="M233.281 218.672L232.477 221.309L233.352 221.575L234.156 218.938L233.281 218.672Z" fill="#99BBDD"/>
<path d="M254.908 210.286L249.763 211.741L250.011 212.621L255.157 211.167L254.908 210.286Z" fill="#99BBDD"/>
<path d="M234.021 222.792C233.963 222.592 232.617 217.809 232.87 210.792C233.017 206.674 233.695 202.646 234.881 198.82C236.365 194.037 238.651 189.562 241.678 185.521L242.045 185.031L242.411 185.521C242.507 185.65 244.795 188.752 246.369 194.921C247.29 198.528 247.774 202.442 247.801 206.554C247.838 211.686 247.167 217.143 245.806 222.774L244.915 222.558C247.955 209.979 246.899 200.708 245.479 195.146C244.309 190.563 242.716 187.699 242.023 186.593C235.635 195.389 234.009 204.58 233.781 210.792C233.529 217.673 234.884 222.493 234.896 222.543L234.021 222.792Z" fill="#99BBDD"/>
<path d="M241.106 195.068L239.857 222.625L240.771 222.666L242.02 195.11L241.106 195.068Z" fill="#99BBDD"/>
<path d="M238.86 199.183L238.123 199.724L240.846 203.437L241.583 202.896L238.86 199.183Z" fill="#99BBDD"/>
<path d="M244.293 202.234L240.85 206.345L241.551 206.933L244.995 202.822L244.293 202.234Z" fill="#99BBDD"/>
<path d="M237.313 208.017L236.649 208.646L240.458 212.658L241.121 212.028L237.313 208.017Z" fill="#99BBDD"/>
<path d="M229.984 223.026C229.876 222.94 227.31 220.91 224.868 217.26C223.432 215.117 222.342 212.856 221.631 210.546C220.737 207.651 220.436 204.669 220.731 201.682L220.781 201.189L221.267 201.278C221.347 201.294 223.257 201.645 225.758 202.908C228.062 204.072 231.314 206.262 233.735 210.093L232.962 210.583C230.661 206.942 227.566 204.854 225.376 203.742C223.716 202.901 222.308 202.476 221.6 202.295C221.132 208.535 223.506 213.571 225.613 216.731C227.972 220.266 230.526 222.29 230.55 222.309L229.984 223.026Z" fill="#99BBDD"/>
<path d="M232.913 222.811C232.876 222.703 229.241 211.883 223.691 206.08L224.353 205.449C227.335 208.566 229.74 213.044 231.234 216.253C232.848 219.718 233.772 222.497 233.781 222.524L232.913 222.811Z" fill="#99BBDD"/>
<path d="M223.135 206.838L222.847 207.706L226.011 208.754L226.298 207.885L223.135 206.838Z" fill="#99BBDD"/>
<path d="M227.675 206.29L226.762 206.36L227.071 210.362L227.983 210.291L227.675 206.29Z" fill="#99BBDD"/>
<path d="M250.804 223.063L250.352 222.269C250.376 222.256 252.76 220.852 255.002 216.94C257.045 213.38 259.373 206.973 258.994 196.56C258.212 196.778 256.638 197.308 254.876 198.411C252.585 199.846 249.492 202.575 247.78 207.435L246.917 207.13C248.725 202.005 251.999 199.125 254.427 197.613C257.063 195.971 259.253 195.55 259.345 195.531L259.863 195.436L259.887 195.962C260.106 200.816 259.77 205.255 258.893 209.157C258.187 212.289 257.131 215.086 255.754 217.47C253.389 221.56 250.909 223.005 250.804 223.063Z" fill="#99BBDD"/>
<path d="M247.804 222.718L246.896 222.613C246.899 222.576 247.327 218.985 248.685 214.42C249.939 210.195 252.27 204.238 256.25 199.852L256.927 200.468C253.068 204.722 250.795 210.537 249.569 214.664C248.23 219.154 247.808 222.681 247.804 222.718Z" fill="#99BBDD"/>
<path d="M252.978 200.957L252.902 204.59L253.817 204.61L253.893 200.976L252.978 200.957Z" fill="#99BBDD"/>
<path d="M256.446 204.785L252.079 206.206L252.362 207.076L256.729 205.655L256.446 204.785Z" fill="#99BBDD"/>
<path d="M250.736 205.178L249.827 205.275L250.317 209.869L251.226 209.772L250.736 205.178Z" fill="#99BBDD"/>
<path d="M248.103 210.199L247.238 210.498L248.688 214.699L249.553 214.4L248.103 210.199Z" fill="#99BBDD"/>
<path d="M253.866 215.078L248.25 216.9L248.532 217.77L254.148 215.948L253.866 215.078Z" fill="#99BBDD"/>
<path d="M246.777 217.547L245.988 218.01L247.368 220.361L248.157 219.898L246.777 217.547Z" fill="#99BBDD"/>
<path d="M258.859 225.632H48.6055C48.6055 223.266 50.5212 221.351 52.8867 221.351H254.577C256.943 221.351 258.859 223.269 258.859 225.632Z" fill="#576C89"/>
<path d="M223.127 122.769H219.333C224.784 122.769 229.207 127.188 229.207 132.646V199.294C229.207 204.746 224.788 209.172 219.333 209.172H223.127C228.579 209.172 233.002 204.746 233.002 199.294V132.646C233.002 127.188 228.579 122.769 223.127 122.769Z" fill="#466EB6"/>
<path d="M142.915 216.576C141.581 216.576 140.494 217.667 140.494 218.997C140.494 219.659 140.762 220.266 141.203 220.703C141.64 221.141 142.247 221.415 142.915 221.415H189.95C191.283 221.415 192.371 220.325 192.371 218.994C192.371 218.332 192.096 217.725 191.659 217.288C191.222 216.85 190.618 216.576 189.953 216.576H188.693H185.471H160.228H142.915Z" fill="#86B1F2"/>
<path d="M193.932 216.576H189.95C190.618 216.576 191.219 216.85 191.656 217.288C192.093 217.725 192.368 218.332 192.368 218.994C192.368 220.325 191.283 221.415 189.947 221.415H193.929C194.597 221.415 195.198 221.141 195.635 220.703C196.073 220.266 196.347 219.659 196.347 218.997C196.353 217.667 195.266 216.576 193.932 216.576Z" fill="#466EB6"/>
<path d="M181.6 209.172L185.468 216.576H188.69L184.815 209.172H181.6Z" fill="#355389"/>
<path d="M156.356 209.172L160.225 216.576H185.468L181.6 209.172H156.356Z" fill="#466EB6"/>
<path d="M112.355 122.769H219.336C224.788 122.769 229.211 127.188 229.211 132.646V199.294C229.211 204.746 224.791 209.172 219.336 209.172H184.815H181.6H156.356H112.355C106.904 209.172 102.481 204.746 102.481 199.294V132.646C102.481 127.188 106.904 122.769 112.355 122.769ZM112.358 197.884H219.333C223.131 197.884 226.22 194.791 226.22 190.994V132.646C226.22 128.848 223.134 125.756 219.333 125.756H112.358C108.561 125.756 105.468 128.848 105.468 132.646V190.994C105.468 194.791 108.561 197.884 112.358 197.884Z" fill="#86B1F2"/>
<path d="M226.22 132.646V190.991C226.22 193.744 224.603 196.125 222.262 197.225C221.372 197.647 220.38 197.884 219.333 197.884H112.358C108.561 197.884 105.465 194.791 105.465 190.991V132.646C105.465 129.228 107.972 126.379 111.243 125.846C111.607 125.787 111.976 125.756 112.355 125.756H219.33C219.709 125.756 220.081 125.787 220.442 125.846C223.716 126.379 226.22 129.224 226.22 132.646Z" fill="#EFEFEF"/>
<mask id="mask0_951_1064" style="mask-type:luminance" maskUnits="userSpaceOnUse" x="105" y="125" width="122" height="73">
<path d="M226.22 132.646V190.994C226.22 193.747 224.603 196.128 222.262 197.228C221.372 197.65 220.38 197.884 219.336 197.884H112.358C108.561 197.884 105.468 194.791 105.468 190.994V132.646C105.468 128.849 108.561 125.756 112.358 125.756H219.333C223.134 125.756 226.22 128.846 226.22 132.646Z" fill="white"/>
</mask>
<g mask="url(#mask0_951_1064)">
<path d="M132.8 192.479H125.926V195.451H132.8V192.479Z" fill="#FEC65E"/>
<path d="M131.38 195.457H127.339V198.429H131.38V195.457Z" fill="#FE875E"/>
<path d="M123.061 187.249L121.996 186.781C121.678 186.642 121.309 186.784 121.17 187.101L119.313 191.321C119.174 191.638 119.316 192.007 119.633 192.146L120.699 192.614C121.016 192.753 121.386 192.611 121.524 192.294L123.382 188.074C123.523 187.757 123.379 187.387 123.061 187.249Z" fill="#FAE0B2"/>
<path d="M140.229 148.241L139.164 147.772C138.846 147.634 138.705 147.264 138.843 146.947L140.701 142.727C140.839 142.41 141.209 142.269 141.526 142.407L142.592 142.875C142.909 143.014 143.051 143.383 142.912 143.701L141.055 147.92C140.916 148.238 140.547 148.382 140.229 148.241Z" fill="#FAE0B2"/>
<path d="M128.824 192.941C125.208 192.941 121.598 192.189 118.189 190.689C117.782 190.51 117.597 190.036 117.776 189.63C117.955 189.223 118.429 189.038 118.836 189.217C124.9 191.887 131.642 192.035 137.821 189.633C143.999 187.23 148.869 182.567 151.539 176.503C157.049 163.979 151.345 149.309 138.825 143.799C138.418 143.621 138.233 143.146 138.412 142.74C138.591 142.333 139.065 142.148 139.472 142.327C152.805 148.194 158.879 163.819 153.011 177.152C150.168 183.611 144.982 188.576 138.403 191.136C135.298 192.34 132.058 192.941 128.824 192.941Z" fill="#FEC65E"/>
<path d="M111.588 179.084C111.656 180.411 111.588 182.758 111.588 182.758L111.582 182.764C107.184 178.529 104.449 172.588 104.449 166.006C104.449 165.368 104.473 164.734 104.526 164.112H104.532C104.532 164.247 104.563 165.184 105.422 166.006C106.346 166.89 106.747 167.22 107.409 167.586C108.074 167.953 110.061 169.145 110.061 169.145C110.061 169.145 110.464 169.274 111.588 170.734C112.712 172.194 113.775 172.727 114.04 173.521C114.305 174.316 114.835 175.043 114.835 175.043C114.835 175.043 112.848 177.762 112.451 178.027C112.053 178.286 111.524 177.759 111.588 179.084Z" fill="#466EB6"/>
<path d="M136.043 186.109C136.299 187.483 136.9 187.338 136.98 187.31V187.317C134.134 188.555 130.992 189.245 127.694 189.245C127.694 189.245 128.488 188.096 129.132 186.771C129.769 185.444 129.021 185.841 128.756 183.189C128.488 180.538 128.756 183.189 128.922 182.792C129.095 182.395 129.283 181.203 128.922 180.14C128.593 179.167 128.864 179.309 128.916 179.339C128.765 179.204 126.345 177.048 125.568 175.785C125.276 175.298 125.125 175.058 125.057 174.96C125.088 174.704 125.171 173.912 125.171 173.38C125.171 172.853 123.717 173.118 123.32 173.118C122.916 173.118 121.327 173.515 120.255 173.645C119.177 173.774 118.546 176.426 118.546 175.631C118.546 174.836 117.881 175.104 117.616 175.034C117.354 174.972 116.957 174.171 116.692 173.512C116.424 172.847 116.027 173.115 115.5 172.449C114.967 171.784 114.57 171.519 114.04 170.059C113.507 168.606 113.11 169.135 112.053 167.01C110.991 164.891 112.053 167.01 112.315 165.997C112.583 164.984 112.98 165.421 113.92 164.626C114.856 163.832 115.232 164.358 115.232 164.358C115.232 164.358 116.156 165.024 116.692 165.994C117.218 166.967 118.946 166.745 118.946 166.745C118.946 166.745 118.946 166.745 118.549 165.553C118.454 165.276 118.407 165.125 118.383 165.051L118.361 164.984C118.346 164.937 118.318 164.87 118.284 164.753C118.016 163.958 116.427 161.971 117.757 160.511C119.082 159.051 119.082 159.587 120.012 158.127C120.936 156.668 121.869 157.065 122.926 157.197C123.988 157.333 123.727 157.333 125.445 157.197C127.17 157.068 127.432 157.068 127.965 155.211C128.491 153.353 127.965 155.211 127.697 153.486C127.429 151.764 127.697 152.032 127.697 150.557C127.697 149.082 127.031 150.437 126.107 150.557C125.177 150.671 124.915 150.705 124.383 151.102C123.856 151.499 123.058 152.562 121.999 152.827C120.936 153.089 121.333 152.827 119.877 152.288C118.417 151.749 119.877 150.97 120.144 149.778C120.412 148.579 121.432 149.778 121.432 149.778C121.432 149.778 121.872 149.245 122.667 148.715C123.462 148.182 123.991 148.447 125.319 147.637C126.643 146.827 125.846 148.05 127.703 147.637C129.56 147.224 128.765 146.768 128.765 146.768V145.906C128.765 145.906 127.438 146.063 126.246 145.928C125.054 145.798 122.932 146.196 121.081 147.061C119.224 147.93 119.883 147.652 119.356 147.27C118.829 146.889 115.774 147.123 113.935 147.27C117.788 144.425 122.553 142.749 127.709 142.749C134.048 142.749 139.792 145.281 143.981 149.396C143.679 149.14 140.833 150.181 140.565 150.97C140.303 151.764 140.7 152.032 139.77 152.956C138.846 153.886 138.846 153.886 136.721 154.681C134.599 155.476 134.864 154.284 133.672 156.141C132.48 157.992 132.212 158.389 132.48 159.319C132.748 160.243 132.344 161.839 134.202 161.306C136.059 160.779 135.4 159.051 137.386 159.717C139.373 160.382 141.199 160.511 141.199 160.511C141.199 160.511 140.509 158.525 141.199 158.127C141.895 157.73 143.161 158.389 143.987 159.051C144.812 159.717 144.812 159.584 145.342 160.379C145.869 161.174 146.405 161.519 146.802 161.408C147.199 161.303 148.659 159.184 148.659 159.184L149.515 157.918C150.264 159.942 150.738 162.101 150.895 164.343H150.889C149.451 163.422 149.186 163.554 146.931 163.554C144.677 163.554 144.412 164.072 142.425 163.548C140.439 163.025 140.568 162.627 138.184 162.76C135.8 162.889 136.197 162.461 134.738 163.539C133.278 164.617 132.483 163.514 132.086 165.988C131.688 168.461 131.023 168.064 132.086 170.186C133.148 172.305 133.148 171.907 134.205 174.03C135.267 176.152 136.062 174.427 135.665 177.476C135.267 180.525 135.267 181.058 135.267 181.585C135.267 182.118 134.999 183.707 134.999 184.372C134.981 185.05 135.769 184.631 136.043 186.109ZM135.911 153.101V150.982C135.116 150.982 136.308 150.052 135.116 150.982C133.924 151.906 133.527 152.968 133.259 153.366C132.991 153.763 132.369 154.031 132.369 154.031L135.911 153.101Z" fill="#466EB6"/>
<path d="M128.92 182.795C128.753 183.192 128.485 180.541 128.753 183.192C129.021 185.844 129.767 185.447 129.129 186.774C128.485 188.099 127.691 189.248 127.691 189.248C121.432 189.248 115.759 186.781 111.579 182.764L111.585 182.758C111.585 182.758 111.653 180.411 111.585 179.084C111.524 177.759 112.05 178.289 112.448 178.027C112.845 177.759 114.832 175.043 114.832 175.043C114.832 175.043 114.305 174.316 114.037 173.521C113.769 172.727 112.709 172.194 111.585 170.734C110.461 169.274 110.058 169.145 110.058 169.145C110.058 169.145 108.071 167.953 107.406 167.586C106.74 167.22 106.343 166.89 105.419 166.006C104.563 165.184 104.529 164.25 104.529 164.112H104.523C105.077 157.21 108.647 151.16 113.914 147.286C115.756 147.138 118.808 146.904 119.335 147.286C119.861 147.668 119.205 147.945 121.059 147.076C122.91 146.208 125.033 145.81 126.225 145.943C127.416 146.078 128.744 145.921 128.744 145.921V146.784C128.744 146.784 129.539 147.24 127.681 147.652C125.824 148.065 126.619 146.842 125.297 147.652C123.97 148.462 123.44 148.197 122.646 148.73C121.851 149.257 121.41 149.793 121.41 149.793C121.41 149.793 120.391 148.595 120.123 149.793C119.855 150.985 118.398 151.764 119.855 152.303C121.315 152.842 120.918 153.104 121.977 152.842C123.04 152.574 123.834 151.515 124.361 151.117C124.894 150.72 125.156 150.689 126.086 150.572C127.01 150.452 127.675 149.097 127.675 150.572C127.675 152.047 127.407 151.78 127.675 153.501C127.943 155.226 128.47 153.372 127.943 155.226C127.41 157.083 127.149 157.083 125.424 157.213C123.702 157.348 123.964 157.348 122.904 157.213C121.848 157.083 120.918 156.686 119.991 158.143C119.06 159.603 119.06 159.067 117.736 160.527C116.409 161.987 117.998 163.973 118.263 164.768C118.3 164.882 118.324 164.95 118.34 164.999L118.361 165.067C118.386 165.141 118.435 165.291 118.528 165.569C118.925 166.761 118.925 166.761 118.925 166.761C118.925 166.761 117.2 166.979 116.67 166.009C116.138 165.036 115.21 164.374 115.21 164.374C115.21 164.374 114.835 163.847 113.898 164.642C112.956 165.436 112.559 164.996 112.294 166.012C112.032 167.026 110.969 164.91 112.032 167.026C113.088 169.148 113.486 168.621 114.018 170.075C114.545 171.535 114.942 171.8 115.478 172.465C116.005 173.13 116.402 172.862 116.67 173.527C116.938 174.187 117.336 174.987 117.594 175.049C117.862 175.117 118.525 174.849 118.525 175.646C118.525 176.441 119.156 173.789 120.234 173.66C121.306 173.53 122.895 173.133 123.299 173.133C123.696 173.133 125.15 172.865 125.15 173.395C125.15 173.928 125.066 174.719 125.036 174.975C124.999 174.923 124.983 174.907 124.977 174.913C124.977 174.935 125.02 175.027 125.02 175.055C125.026 175.049 125.029 175.018 125.036 174.978C125.103 175.077 125.254 175.317 125.547 175.804C126.32 177.069 128.741 179.222 128.895 179.358C128.843 179.327 128.571 179.185 128.901 180.159C129.28 181.206 129.092 182.398 128.92 182.795Z" fill="#50BFA5"/>
<path d="M136.977 187.313C136.9 187.338 136.296 187.486 136.04 186.112C135.769 184.634 134.978 185.05 134.978 184.39C134.978 183.725 135.246 182.136 135.246 181.603C135.246 181.076 135.246 180.54 135.643 177.494C136.04 174.448 135.246 176.17 134.183 174.048C133.127 171.926 133.127 172.323 132.064 170.204C131.002 168.082 131.667 168.479 132.064 166.006C132.462 163.533 133.256 164.635 134.716 163.557C136.176 162.479 135.779 162.907 138.163 162.778C140.547 162.649 140.417 163.046 142.404 163.567C144.39 164.09 144.658 163.573 146.91 163.573C149.161 163.573 149.429 163.443 150.868 164.361H150.874C150.911 164.906 150.932 165.448 150.932 166.003C150.932 175.542 145.191 183.734 136.977 187.316V187.313Z" fill="#50BFA5"/>
<path d="M135.116 150.982C136.308 150.052 135.116 150.982 135.911 150.982V153.101L132.372 154.031C132.372 154.031 132.994 153.763 133.262 153.366C133.527 152.968 133.925 151.909 135.116 150.982Z" fill="#50BFA5"/>
<path d="M149.497 157.93V157.936L148.641 159.202C148.641 159.202 147.181 161.321 146.783 161.426C146.386 161.537 145.853 161.192 145.324 160.397C144.797 159.603 144.797 159.732 143.968 159.07C143.143 158.404 141.877 157.745 141.181 158.146C140.491 158.543 141.181 160.53 141.181 160.53C141.181 160.53 139.358 160.4 137.368 159.735C135.381 159.07 136.04 160.798 134.183 161.324C132.326 161.857 132.729 160.262 132.461 159.338C132.193 158.408 132.461 158.01 133.653 156.159C134.845 154.302 134.577 155.494 136.703 154.699C138.825 153.905 138.825 153.905 139.752 152.974C140.682 152.05 140.285 151.782 140.546 150.988C140.814 150.199 143.657 149.158 143.962 149.414C143.962 149.42 143.968 149.42 143.968 149.42C146.389 151.792 148.293 154.69 149.497 157.93Z" fill="#50BFA5"/>
</g>
<mask id="mask1_951_1064" style="mask-type:luminance" maskUnits="userSpaceOnUse" x="105" y="125" width="122" height="73">
<path d="M226.22 132.646V190.994C226.22 193.747 224.603 196.128 222.262 197.228C221.372 197.65 220.38 197.884 219.336 197.884H112.358C108.561 197.884 105.468 194.791 105.468 190.994V132.646C105.468 128.849 108.561 125.756 112.358 125.756H219.333C223.134 125.756 226.22 128.846 226.22 132.646Z" fill="white"/>
</mask>
<g mask="url(#mask1_951_1064)">
<path d="M150.658 174.223L151.804 175.255C153.301 176.604 155.629 176.484 156.978 174.987C158.327 173.49 158.207 171.162 156.71 169.813L155.564 168.781C154.068 167.432 151.739 167.552 150.39 169.049C149.041 170.546 149.161 172.874 150.658 174.223Z" fill="#FAE0B2"/>
<path d="M156.886 171.396C157.573 171.282 158.183 172.6 158.069 171.913L157.48 167.256C157.366 166.57 156.71 166.101 156.023 166.215C155.337 166.329 154.868 166.985 154.982 167.672L155.429 170.355C155.543 171.042 156.199 171.51 156.886 171.396Z" fill="#FAE0B2"/>
<path d="M155.223 170.179C155.688 169.662 155.648 168.858 155.13 168.39L153.11 166.566C152.592 166.098 151.788 166.141 151.32 166.659C150.852 167.176 150.895 167.98 151.413 168.448L153.433 170.272C153.951 170.737 154.758 170.697 155.223 170.179Z" fill="#FAE0B2"/>
<path d="M152.891 170.198C153.359 169.68 153.316 168.876 152.799 168.408L150.778 166.585C150.261 166.117 149.457 166.16 148.989 166.677C148.524 167.195 148.564 167.999 149.081 168.467L151.102 170.29C151.619 170.758 152.426 170.715 152.891 170.198Z" fill="#FAE0B2"/>
<path d="M152.315 171.809C152.783 171.291 152.74 170.487 152.223 170.019L150.202 168.196C149.685 167.728 148.881 167.771 148.413 168.288C147.945 168.806 147.988 169.609 148.505 170.078L150.526 171.901C151.043 172.369 151.847 172.326 152.315 171.809Z" fill="#FAE0B2"/>
<path d="M152.411 174.023C152.879 173.506 152.836 172.702 152.318 172.234L150.298 170.411C149.78 169.942 148.976 169.986 148.508 170.503C148.043 171.02 148.083 171.824 148.601 172.292L150.621 174.116C151.142 174.581 151.946 174.541 152.411 174.023Z" fill="#FAE0B2"/>
<path d="M175.089 171.063C180.587 163.443 188.866 161.989 189.879 161.835C182.675 163.089 177.149 169.231 176.854 176.718C176.844 176.931 176.838 177.146 176.838 177.362V186.783C164.728 193.578 153.51 177.189 153.51 177.189L159.107 171.996C163.631 176.924 169.224 179.188 175.089 171.063Z" fill="#3C8F7C"/>
<path d="M220.95 189.925C220.95 199.732 218.501 207.719 210.869 215.074C210.607 214.997 209.828 214.824 207.86 212.924C206.622 211.735 205.772 209.031 205.772 209.031C205.772 209.031 206.172 208.375 206.739 207.25L203.973 207.253L186.83 207.269L177.066 207.278C176.247 207.281 175.597 206.591 175.649 205.772L176.835 186.778V177.356C176.835 177.14 176.841 176.925 176.85 176.712C177.146 169.228 182.672 163.083 189.876 161.83C189.91 161.823 189.943 161.82 189.977 161.814C190.827 161.673 191.699 161.599 192.589 161.599H198.17C199.054 161.599 199.929 161.673 200.773 161.814C201.934 162.005 203.052 162.326 204.111 162.76C213.225 165.997 220.95 177.334 220.95 189.925Z" fill="#50BFA5"/>
<path d="M201.577 207.284H184.43V207.272L187.276 164.832C187.276 164.832 189.303 161.604 190.193 161.604H195.774C196.658 161.604 197.533 161.678 198.377 161.82L198.595 164.922L201.574 207.256L201.577 207.284Z" fill="#F7CC7F"/>
<path d="M187.433 162.362L184.43 212.551L175.009 210.54L178.523 185.743C178.523 185.743 179.823 177.815 181.008 173.416C182.194 169.015 187.433 162.362 187.433 162.362Z" fill="#50BFA5"/>
<path d="M198.377 161.82L201.577 212.523L212.831 211.257C212.831 211.257 214.5 203.058 216.065 195.362C217.63 187.665 216.204 174.227 212.298 170.466C208.396 166.705 198.377 161.82 198.377 161.82Z" fill="#50BFA5"/>
<path d="M203.249 177.1C203.249 177.1 205.029 181.046 206.363 187.175C207.697 193.304 205.772 209.034 205.772 209.034L206.739 207.155C206.739 207.155 211.119 198.167 210.472 192.639C209.828 187.107 207.663 182.21 203.249 177.1Z" fill="#3C8F7C"/>
<path d="M151.234 166.825L151.049 167.01L153.963 169.924L154.148 169.739L151.234 166.825Z" fill="#FE875E"/>
<path d="M148.855 167.928L148.67 168.113L151.526 170.968L151.711 170.783L148.855 167.928Z" fill="#FE875E"/>
<path d="M148.902 170.269L148.717 170.454L151.169 172.906L151.354 172.721L148.902 170.269Z" fill="#FE875E"/>
<path d="M198.614 165.544C197.246 166.203 195.186 166.526 192.968 166.526C190.655 166.526 188.588 166.074 187.221 165.365L187.409 162.599L187.424 162.368C187.427 162.365 187.433 162.365 187.433 162.365H187.424C187.424 162.365 187.56 162.316 187.729 162.202C188.006 162.014 188.364 161.648 188.33 161.038C188.317 160.745 188.04 159.904 188.04 159.904L187.732 158.728L187.726 158.716L186.617 154.441L197.739 153.467C197.739 153.467 196.787 158.58 196.938 160.474C197.037 161.731 198.417 161.611 198.417 161.611L198.614 165.544Z" fill="#FAE0B2"/>
<path d="M196.141 156.772C196.141 156.772 195.3 161.26 189.078 162.359C188.684 162.43 187.917 162.541 187.406 162.596L187.421 162.365C187.424 162.362 187.43 162.362 187.43 162.362H187.421C187.421 162.362 187.557 162.313 187.726 162.199C188.003 162.011 188.36 161.645 188.327 161.035C188.314 160.742 188.015 159.815 188.015 159.815C188.015 159.815 194.003 160.391 196.141 156.772Z" fill="#FE875E"/>
<path d="M199.877 149.984C199.692 155.155 196.442 159.935 191.271 159.751C186.1 159.566 181.547 159.748 181.15 149.313C180.873 142.068 185.678 140.1 190.849 140.285C196.02 140.47 200.061 144.813 199.877 149.984Z" fill="#FAE0B2"/>
<path d="M182.478 145.971C182.887 146.272 183.519 146.519 184.483 146.624C187.846 146.978 193.96 144.23 193.96 144.23C193.96 144.23 193.359 146.051 193.563 149.34C193.563 149.34 194.647 147.252 196.19 149.251C197.57 151.046 195.605 153.169 194.422 152.707C194.422 152.707 193.877 156.775 191.844 157.142C189.808 157.508 189.42 155.608 186.377 154.838C183.337 154.068 182.308 155.645 182.308 155.645C184.942 161.854 193.75 159.581 193.75 159.581C193.75 159.581 194.844 160.681 197.194 160.44C199.544 160.2 200.009 155.137 200.009 155.137C201.598 155.703 203.397 152.583 203.671 147.822C203.948 143.063 199.538 142.918 199.538 142.918C199.538 142.918 200.064 139.586 194.902 137.722C189.873 135.908 188.086 137.864 187.994 137.966C188.04 137.812 189.013 134.559 186.377 134.51C183.676 134.461 184.015 137.23 184.015 137.23C180.999 134.501 176.693 138.218 177.47 141.341C178.243 144.468 181.828 144.138 181.828 144.138C181.828 144.138 181.461 145.219 182.478 145.971Z" fill="#13375B"/>
<path d="M193.599 146.343C193.599 146.343 193.461 149.59 193.63 151.635C193.8 153.683 193.935 155.768 192.62 156.775C192.62 156.775 195.139 156.033 194.453 152.399C193.766 148.764 193.969 148.515 194.4 147.347C194.831 146.183 193.599 146.343 193.599 146.343Z" fill="#13375B"/>
<path d="M160.68 173.441C160.683 173.432 160.683 173.426 160.687 173.417C160.687 173.407 160.683 173.401 160.683 173.392C160.683 173.383 160.68 173.377 160.677 173.367C160.674 173.358 160.668 173.352 160.665 173.346C160.662 173.34 160.659 173.333 160.653 173.327C160.653 173.327 160.65 173.327 160.65 173.324C160.65 173.324 160.65 173.321 160.647 173.321L159.264 171.954C159.257 171.947 159.251 171.947 159.245 171.941C159.239 171.935 159.23 171.929 159.224 171.926C159.217 171.923 159.208 171.923 159.199 171.92C159.19 171.917 159.184 171.914 159.174 171.914C159.165 171.914 159.159 171.917 159.15 171.917C159.14 171.917 159.134 171.92 159.125 171.923C159.116 171.926 159.11 171.932 159.1 171.938C159.094 171.941 159.088 171.944 159.082 171.951L158.05 172.887L157.536 173.352L156.51 174.285L155.996 174.75L153.418 177.091C153.412 177.097 153.409 177.103 153.405 177.106C153.399 177.113 153.393 177.119 153.39 177.128C153.387 177.137 153.384 177.143 153.381 177.153C153.378 177.162 153.375 177.168 153.375 177.177C153.375 177.187 153.375 177.196 153.375 177.202C153.375 177.211 153.375 177.217 153.378 177.227C153.381 177.236 153.384 177.242 153.39 177.251C153.393 177.257 153.393 177.264 153.399 177.27L154.57 178.837L154.573 178.841C154.576 178.844 154.576 178.844 154.576 178.847C154.585 178.856 154.594 178.859 154.604 178.865C154.61 178.868 154.613 178.874 154.619 178.877C154.637 178.887 154.656 178.89 154.674 178.89C154.699 178.89 154.724 178.881 154.745 178.865C154.748 178.865 154.751 178.865 154.751 178.862C154.754 178.862 154.754 178.859 154.754 178.859C154.758 178.859 154.758 178.856 154.761 178.856L157.431 176.429L157.967 175.942L159.039 174.969L159.575 174.482L160.64 173.512C160.64 173.512 160.64 173.509 160.643 173.509C160.643 173.509 160.647 173.509 160.647 173.506C160.653 173.5 160.656 173.494 160.659 173.487C160.665 173.481 160.671 173.475 160.674 173.466C160.677 173.457 160.677 173.447 160.68 173.441ZM160.024 173.715L158.845 172.517L159.165 172.225L160.363 173.407L160.024 173.715ZM159.492 174.202L158.327 172.985L158.648 172.693L159.827 173.891L159.492 174.202ZM158.959 174.686L157.813 173.454L158.133 173.161L159.297 174.378L158.959 174.686ZM158.426 175.172L157.295 173.925L157.616 173.632L158.762 174.864L158.426 175.172ZM157.893 175.656L156.781 174.393L157.101 174.1L158.232 175.348L157.893 175.656ZM157.36 176.139L156.264 174.861L156.584 174.569L157.696 175.831L157.36 176.139ZM156.827 176.626L155.746 175.332L156.067 175.04L157.163 176.318L156.827 176.626ZM156.294 177.11L155.232 175.801L155.552 175.508L156.633 176.802L156.294 177.11ZM155.762 177.593L154.714 176.269L155.035 175.976L156.097 177.285L155.762 177.593ZM155.229 178.08L154.2 176.74L154.52 176.447L155.568 177.772L155.229 178.08ZM154.696 178.563L153.683 177.208L154.003 176.916L155.032 178.255L154.696 178.563Z" fill="#1D135B"/>
</g>
<mask id="mask2_951_1064" style="mask-type:luminance" maskUnits="userSpaceOnUse" x="105" y="125" width="122" height="73">
<path d="M226.22 132.646V190.994C226.22 193.747 224.603 196.128 222.262 197.228C221.372 197.65 220.38 197.884 219.336 197.884H112.358C108.561 197.884 105.468 194.791 105.468 190.994V132.646C105.468 128.849 108.561 125.756 112.358 125.756H219.333C223.134 125.756 226.22 128.846 226.22 132.646Z" fill="white"/>
</mask>
<g mask="url(#mask2_951_1064)">
<path d="M138.889 140.522L141.578 152.155H174.251L180.355 157.114L173.472 140.522H138.889Z" fill="#9BC1F9"/>
<path d="M170.589 144.464H147.677C147.35 144.464 147.088 144.199 147.088 143.876C147.088 143.549 147.353 143.288 147.677 143.288H170.589C170.915 143.288 171.177 143.552 171.177 143.876C171.177 144.202 170.915 144.464 170.589 144.464Z" fill="#466EB6"/>
<path d="M169.902 146.67H144.181C143.854 146.67 143.593 146.405 143.593 146.081C143.593 145.755 143.857 145.493 144.181 145.493H169.902C170.228 145.493 170.49 145.758 170.49 146.081C170.49 146.405 170.225 146.67 169.902 146.67Z" fill="#466EB6"/>
<path d="M169.255 148.74H143.534C143.208 148.74 142.946 148.475 142.946 148.151C142.946 147.825 143.211 147.563 143.534 147.563H169.255C169.582 147.563 169.843 147.828 169.843 148.151C169.843 148.475 169.579 148.74 169.255 148.74Z" fill="#466EB6"/>
</g>
<path d="M226.22 132.646V134.026H105.465V132.646C105.465 129.11 108.262 125.753 112.143 125.753H219.61C222.533 125.753 226.22 128.374 226.22 132.646Z" fill="#466EB6"/>
<path d="M112.482 131.506C113.349 131.506 114.052 130.803 114.052 129.936C114.052 129.068 113.349 128.365 112.482 128.365C111.614 128.365 110.911 129.068 110.911 129.936C110.911 130.803 111.614 131.506 112.482 131.506Z" fill="#171C51"/>
<path d="M122.156 129.936C122.156 130.801 121.454 131.506 120.585 131.506C119.72 131.506 119.014 130.804 119.014 129.936C119.014 129.067 119.717 128.365 120.585 128.365C121.454 128.365 122.156 129.07 122.156 129.936Z" fill="#171C51"/>
<path d="M128.282 131.506C129.15 131.506 129.853 130.803 129.853 129.936C129.853 129.068 129.15 128.365 128.282 128.365C127.414 128.365 126.711 129.068 126.711 129.936C126.711 130.803 127.414 131.506 128.282 131.506Z" fill="#171C51"/>
<path d="M156.55 197.884H135.954L112.722 125.756H133.318L156.55 197.884Z" fill="white"/>
<path d="M168.27 197.884H162.122L138.89 125.756H145.034L168.27 197.884Z" fill="white"/>
<path d="M216.903 197.884H196.307L173.074 125.756H193.674L216.903 197.884Z" fill="white"/>
<path d="M226.22 190.43V190.994C226.22 193.747 224.603 196.128 222.262 197.228L199.245 125.756H205.39L226.22 190.43Z" fill="white"/>
<path d="M101.96 216.641C101.96 216.641 101.258 218.932 101.988 221.744L104.434 221.541L111.382 221.011V221.008C111.382 221.008 111.173 219.899 111.173 218.6C111.173 217.405 111.382 216.188 111.382 216.188L104.535 216.511L101.96 216.641Z" fill="#FAE0B2"/>
<path d="M101.227 215.566C101.227 215.566 99.8689 218.729 101.227 222.822L111.564 222.142C111.785 222.126 111.961 221.861 111.952 221.55C111.943 221.242 111.761 220.999 111.542 220.999C111.536 220.999 111.53 220.999 111.524 220.999L111.376 221.011L104.427 221.541L101.982 221.744C101.252 218.932 101.954 216.641 101.954 216.641L104.526 216.511L111.373 216.188L111.539 216.179C111.758 216.166 111.933 215.917 111.933 215.606C111.933 215.292 111.752 215.036 111.527 215.036C111.521 215.036 111.514 215.036 111.508 215.036L101.227 215.566Z" fill="#F79C8D"/>
<path d="M70.3995 214.577H71.3882L101.227 215.566L111.518 215.033L81.4875 214.438L70.3995 214.577Z" fill="#F47458"/>
<path d="M70.3996 214.577C70.3996 214.577 68.9612 218.818 70.2394 221.969H71.3852L101.227 222.825C99.869 218.732 101.227 215.569 101.227 215.569L71.3852 214.577H70.3996Z" fill="#F47458"/>
<path d="M101.803 218.094C102.878 218.144 103.95 218.11 105.022 218.054C106.091 217.99 107.159 217.907 108.225 217.737C107.15 217.688 106.078 217.722 105.006 217.777C103.935 217.839 102.866 217.925 101.803 218.094Z" fill="#E5BD83"/>
<path d="M107.292 219.813C107.892 219.865 108.484 219.834 109.072 219.785C109.66 219.727 110.249 219.644 110.828 219.48C110.227 219.425 109.636 219.459 109.047 219.508C108.459 219.567 107.871 219.647 107.292 219.813Z" fill="#E5BD83"/>
<path d="M106.5 220.706C106.944 220.016 106.861 218.449 106.349 217.811C105.447 217.857 104.541 217.907 103.639 217.953C104.153 218.59 104.236 220.158 103.79 220.848C104.347 220.632 104.886 220.361 105.388 220.056C105.792 220.315 106.155 220.54 106.5 220.706Z" fill="#F8C558"/>
<path d="M98.7079 222.742C97.4297 219.591 98.8649 215.482 98.8649 215.482H96.0744C96.0744 215.482 94.6392 219.591 95.9174 222.742H98.7079Z" fill="#F8C558"/>
<path d="M75.269 222.105C73.9908 218.954 75.4261 214.845 75.4261 214.845H72.6356C72.6356 214.845 71.2003 218.954 72.4785 222.105H75.269Z" fill="#F8C558"/>
<path d="M82.5747 209.323C82.5747 209.323 83.5603 211.614 82.5378 214.426L78.6539 214.214L68.9149 213.684V213.681C68.9149 213.681 69.2106 212.572 69.2106 211.272C69.2106 210.077 68.9149 208.861 68.9149 208.861V208.857L78.5153 209.184L82.5747 209.323Z" fill="#FAE0B2"/>
<path d="M68.7117 213.671L68.915 213.684L78.6539 214.213L82.5378 214.426C83.5604 211.614 82.5748 209.322 82.5748 209.322L78.5153 209.184L68.915 208.857L68.684 208.851C68.376 208.839 68.1327 208.589 68.1327 208.278C68.1327 207.964 68.3883 207.708 68.6994 207.708C68.7086 207.708 68.7148 207.708 68.724 207.708L83.1446 208.241C83.1446 208.241 85.048 211.404 83.1446 215.498L68.6563 214.817C68.3452 214.802 68.1019 214.537 68.1111 214.226C68.1234 213.918 68.3791 213.674 68.6871 213.674C68.6963 213.671 68.7025 213.671 68.7117 213.671Z" fill="#50BFA5"/>
<path d="M68.7271 207.705L108.24 207.209L108.022 207.216L83.1445 208.241L68.7271 207.705Z" fill="#3C8F7C"/>
<path d="M83.6281 208.22L108.022 207.216C109.238 207.166 110.252 208.137 110.258 209.356L110.273 212.396C110.279 213.557 109.365 214.515 108.203 214.558L83.1445 215.498C85.048 211.404 83.1445 208.241 83.1445 208.241L83.6281 208.22Z" fill="#3C8F7C"/>
<path d="M82.5039 211.284C81.7524 211.337 81.0009 211.346 80.2493 211.337C79.5009 211.331 78.7525 211.3 78.004 211.263C77.2556 211.217 76.5102 211.167 75.7649 211.087C75.0195 211.013 74.2741 210.921 73.5319 210.785C74.2834 210.733 75.0349 210.724 75.7864 210.733C76.5349 210.739 77.2833 210.77 78.0317 210.807C78.7802 210.853 79.5255 210.906 80.2709 210.983C81.0163 211.057 81.7616 211.149 82.5039 211.284Z" fill="#E5BD83"/>
<path d="M74.5452 212.486C73.7105 212.538 72.8851 212.507 72.0566 212.458C71.2311 212.399 70.4057 212.316 69.5864 212.15C70.4211 212.095 71.2465 212.125 72.0751 212.178C72.9036 212.239 73.729 212.319 74.5452 212.486Z" fill="#E5BD83"/>
<path d="M75.8819 215.769C75.1211 214.648 75.1982 211.989 76.0236 210.915C77.5174 210.958 78.9588 211.142 80.4526 211.186C79.6272 212.261 79.6056 214.78 80.3664 215.898C79.4362 215.565 78.5338 215.137 77.693 214.654C77.04 215.091 76.4455 215.479 75.8819 215.769Z" fill="#F47458"/>
<path d="M97.0107 200.855L96.3054 200.92C98.0641 201.046 99.3854 202.568 99.2591 204.327L99.1914 205.3C99.0867 206.766 98.0056 207.93 96.6257 208.198L107.976 207.286C109.867 207.102 111.247 205.414 111.052 203.523L110.997 202.999C110.806 201.136 109.152 199.771 107.286 199.938H107.283L97.0107 200.855Z" fill="#355389"/>
<path d="M69.6788 200.313L96.3054 200.92L97.0108 200.855L107.283 199.94H107.286L107.409 199.931L69.6788 200.313Z" fill="#355389"/>
<path d="M70.4458 201.388L96.2469 202.063C96.8291 202.112 97.3557 202.398 97.713 202.873C98.021 203.285 98.1504 203.803 98.1103 204.32L98.0457 205.22C97.9717 206.267 97.0909 207.102 96.0437 207.12C95.9851 207.12 95.9235 207.117 95.8619 207.114L95.8342 207.111L70.4088 206.535L69.7774 206.519C69.4787 206.513 69.2353 206.757 69.2415 207.055V207.148C69.2446 207.428 69.4725 207.656 69.7528 207.665L95.7788 208.257C96.0683 208.278 96.3517 208.26 96.6227 208.204C97.9995 207.936 99.0836 206.772 99.1883 205.306L99.2561 204.333C99.3824 202.574 98.058 201.052 96.3024 200.926L69.6789 200.319C69.3801 200.313 69.1368 200.554 69.1429 200.855C69.146 201.136 69.3709 201.364 69.6511 201.373L70.4458 201.388Z" fill="#466EB6"/>
<path d="M70.4088 206.532L95.8342 207.108L95.8619 207.111C95.9205 207.114 95.982 207.117 96.0436 207.117C97.0908 207.102 97.9717 206.264 98.0456 205.217L98.1103 204.317C98.1473 203.803 98.021 203.283 97.713 202.87C97.3557 202.399 96.8291 202.109 96.2469 202.06L70.4458 201.385C70.455 201.431 70.7815 202.965 70.7969 203.951C70.8123 204.936 70.4088 206.532 70.4088 206.532Z" fill="#FAE0B2"/>
<path d="M95.8773 203.554C95.1319 203.43 94.3866 203.35 93.6381 203.286C92.8928 203.221 92.1443 203.181 91.3959 203.147C90.6474 203.122 89.899 203.101 89.1475 203.107C88.399 203.11 87.6475 203.132 86.896 203.196C87.6414 203.323 88.3867 203.4 89.1352 203.464C89.8805 203.529 90.629 203.569 91.3774 203.603C92.1258 203.628 92.8743 203.649 93.6258 203.64C94.3742 203.64 95.1227 203.618 95.8773 203.554Z" fill="#E5BD83"/>
<path d="M89.7204 205.645C88.975 205.522 88.2297 205.442 87.4813 205.377C86.7359 205.312 85.9875 205.272 85.239 205.238C84.4906 205.214 83.7421 205.192 82.9906 205.198C82.2422 205.201 81.4907 205.223 80.7391 205.288C81.4845 205.411 82.2299 205.491 82.9783 205.556C83.7237 205.62 84.4721 205.66 85.2205 205.694C85.969 205.719 86.7174 205.74 87.4689 205.731C88.2174 205.731 88.9689 205.713 89.7204 205.645Z" fill="#E5BD83"/>
<path d="M88.7071 209.532C87.6722 208.149 87.6075 204.721 88.5962 203.304C90.5027 203.273 92.1998 203.476 94.1063 203.446C93.1176 204.862 93.3948 208.056 94.4297 209.439C93.2254 209.07 92.0519 208.574 90.9524 208.004C90.1423 208.605 89.4093 209.128 88.7071 209.532Z" fill="#50BFA5"/>
<path d="M83.1292 204.308C82.1035 204.185 81.0779 204.105 80.0522 204.043C79.0266 203.978 77.9979 203.938 76.9722 203.904C75.9435 203.88 74.9179 203.858 73.8892 203.867C72.8604 203.87 71.8317 203.892 70.7999 203.957C71.8256 204.08 72.8512 204.16 73.8768 204.225C74.9025 204.289 75.9312 204.329 76.9568 204.363C77.9856 204.388 79.0112 204.41 80.0399 204.4C81.0686 204.391 82.0974 204.373 83.1292 204.308Z" fill="#E5BD83"/>
<path d="M106.479 178.464H73.0575C73.0575 178.464 73.6396 180.882 73.6396 183.512C73.6396 186.065 73.0575 188.56 73.0575 188.56H106.479C107.664 188.56 108.625 187.599 108.625 186.413V180.614C108.622 179.425 107.661 178.464 106.479 178.464Z" fill="#FAE0B2"/>
<path d="M72.6079 177.09C72.229 177.09 71.921 177.398 71.921 177.777C71.921 177.968 71.998 178.138 72.1212 178.264C72.2444 178.39 72.4169 178.464 72.6079 178.464H73.0575H106.479C107.664 178.464 108.625 179.425 108.625 180.614V186.413C108.625 187.599 107.664 188.56 106.479 188.56H73.0575H72.6079C72.229 188.56 71.921 188.868 71.921 189.247C71.921 189.438 71.998 189.607 72.1212 189.734C72.2444 189.857 72.4169 189.934 72.6079 189.934H106.479C108.425 189.934 109.999 188.357 109.999 186.413V180.611C109.999 178.667 108.425 177.09 106.479 177.09H72.6079Z" fill="#184655"/>
<path d="M104.273 180.417C102.293 180.328 100.316 180.269 98.3351 180.238C96.3547 180.201 94.3773 180.192 92.3969 180.189C90.4164 180.192 88.4391 180.201 86.4586 180.238C84.4782 180.269 82.5008 180.328 80.5204 180.417C82.5008 180.506 84.4782 180.565 86.4586 180.596C88.4391 180.632 90.4164 180.642 92.3969 180.645C94.3773 180.642 96.3547 180.629 98.3351 180.596C100.316 180.565 102.293 180.506 104.273 180.417Z" fill="#E5BD83"/>
<path d="M105.512 183.512C104.763 183.417 104.015 183.367 103.269 183.334C102.521 183.297 101.772 183.287 101.027 183.281C100.279 183.284 99.5302 183.294 98.7848 183.331C98.0364 183.364 97.288 183.414 96.5426 183.509C97.291 183.605 98.0395 183.654 98.7848 183.688C99.5333 183.725 100.282 183.734 101.027 183.737C101.776 183.734 102.524 183.722 103.269 183.688C104.015 183.657 104.763 183.608 105.512 183.512Z" fill="#E5BD83"/>
<path d="M99.7857 186.684C99.0373 186.589 98.2889 186.54 97.5435 186.506C96.7951 186.469 96.0466 186.46 95.3013 186.457C94.5528 186.46 93.8044 186.469 93.059 186.506C92.3106 186.54 91.5621 186.589 90.8168 186.684C91.5652 186.78 92.3137 186.829 93.059 186.863C93.8075 186.9 94.5559 186.909 95.3013 186.912C96.0497 186.909 96.7981 186.897 97.5435 186.863C98.2919 186.829 99.0373 186.78 99.7857 186.684Z" fill="#E5BD83"/>
<path d="M95.0641 184.828C93.3363 184.738 91.6084 184.68 89.8805 184.649C88.1526 184.612 86.4247 184.603 84.6969 184.6C82.969 184.603 81.2411 184.612 79.5132 184.649C77.7854 184.68 76.0575 184.738 74.3296 184.828C76.0575 184.917 77.7854 184.975 79.5132 185.006C81.2411 185.043 82.969 185.052 84.6969 185.055C86.4247 185.052 88.1526 185.04 89.8805 185.006C91.6084 184.975 93.3363 184.917 95.0641 184.828Z" fill="#E5BD83"/>
<path d="M98.5476 189.623C99.5609 187.71 99.5609 185.422 98.5476 183.512C100.454 183.512 102.364 183.512 104.273 183.512C105.287 185.425 105.287 187.713 104.273 189.623C103.596 189.102 102.841 188.554 102.013 187.994C100.932 188.554 99.7765 189.102 98.5476 189.623Z" fill="#355389"/>
<path d="M80.5513 189.94H78.423V200.039H80.5513V189.94Z" fill="#FE875E"/>
<path d="M78.423 189.94H74.881V200.039H78.423V189.94Z" fill="#F7CC7F"/>
<path d="M105.133 189.94H80.5513V200.039H105.133V189.94Z" fill="#F7CC7F"/>
<path d="M107.261 189.94H105.133V200.039H107.261V189.94Z" fill="#FE875E"/>
<path d="M110.8 189.94H107.258V200.039H110.8V189.94Z" fill="#F7CC7F"/>
<path d="M110.825 192.835C110.825 192.835 113.544 194.147 113.979 197.689L112.814 196.719L112.402 197.689C112.402 197.689 112.134 194.68 110.825 193.516V192.835Z" fill="#355389"/>
<path d="M83.1323 194.988C83.1323 196.248 87.4505 197.27 92.7758 197.27C98.1011 197.27 102.419 196.248 102.419 194.988C102.419 193.728 98.1011 192.706 92.7758 192.706C87.4505 192.706 83.1323 193.728 83.1323 194.988Z" fill="#FE875E"/>
<path d="M101.209 140.937C102.832 141.587 103.701 144.304 103.821 147.784C103.938 151.265 105.918 155.838 103.747 157.015C101.575 158.195 97.9317 155.373 95.1197 157.85C92.3076 160.326 88.2112 160.554 88.2112 160.554C88.2112 160.554 85.6548 158.527 86.662 152.737C87.6661 146.946 91.4945 148.967 93.207 146.568C94.9133 144.165 95.7233 138.741 101.209 140.937Z" fill="#13375B"/>
<path d="M100.285 152.096C100.285 152.096 94.6084 150.904 94.7902 152.762C94.8672 153.553 97.3219 157.104 97.3804 157.4C97.4174 157.616 97.4667 157.834 97.5129 158.053C97.5591 158.272 97.6053 158.487 97.6638 158.709C97.7192 158.931 97.7685 159.146 97.8301 159.368L98.0242 160.033C98.055 160.144 98.0919 160.255 98.132 160.369L98.2459 160.708L98.363 161.044L98.4985 161.389L98.6371 161.734C98.6617 161.792 98.6833 161.848 98.7079 161.906L98.7911 162.085L98.9605 162.439L99.0467 162.615L99.0898 162.704L99.1607 162.836C99.2654 163.018 99.367 163.203 99.4841 163.375C99.6073 163.545 99.7336 163.708 99.8629 163.868C99.9984 164.016 100.14 164.161 100.282 164.299C100.427 164.429 100.574 164.549 100.725 164.666C101.329 165.109 101.936 165.396 102.512 165.59C102.653 165.633 102.801 165.688 102.94 165.719L103.356 165.824C103.627 165.879 103.898 165.926 104.156 165.956C104.677 166.021 105.179 166.046 105.659 166.036C106.627 166.024 106.747 161.518 106.103 161.355C105.78 161.275 105.481 161.176 105.21 161.075C105.145 161.047 105.074 161.025 105.016 160.994C104.954 160.964 104.896 160.936 104.834 160.911L104.674 160.825C104.618 160.797 104.581 160.763 104.535 160.736C104.366 160.619 104.277 160.215 104.277 160.215L104.218 160.009L104.187 159.907C104.178 159.87 104.172 159.83 104.163 159.793L104.113 159.562L104.058 159.334L104.012 159.088C103.984 158.922 103.947 158.765 103.922 158.589C103.864 158.247 103.747 157.064 103.599 155.497C103.442 153.809 102.219 152.515 100.285 152.096Z" fill="#F47458"/>
<path d="M89.5356 165.587C89.4371 164.321 88.6547 161.857 88.5901 159.901C88.4545 155.826 88.5562 151.899 95.095 151.862C95.1042 151.859 95.1135 151.859 95.1196 151.856C95.5539 151.782 95.8712 151.751 96.0221 151.736C96.0868 151.73 96.1206 151.73 96.1206 151.73C99.176 151.643 101.366 151.961 101.631 154.181C101.791 155.537 102.909 156.128 103.112 157.585C103.377 159.479 102.841 159.796 102.355 161.376C101.97 162.627 105.351 171.075 105.351 171.075L89.1075 171.386C89.1075 171.386 89.7666 168.602 89.5356 165.587Z" fill="#F8C558"/>
<path d="M96.0221 151.739C95.8712 151.751 95.5508 151.785 95.1196 151.859C95.4122 151.8 95.7141 151.76 96.0221 151.739Z" fill="#587CF8"/>
<path d="M95.2583 148.188L99.4717 148.911L98.9142 150.507L98.9111 150.513L98.7571 150.953L98.6093 151.375L98.5785 151.462L98.0703 151.52L98.406 151.847C98.406 151.847 98.2428 152.506 96.9153 152.506C95.5878 152.506 95.1166 151.856 95.1166 151.856L95.2583 148.188Z" fill="#FAE0B2"/>
<path d="M95.1228 146.897C95.0304 148.878 96.1176 150.51 98.018 151.077C99.4717 151.511 100.596 150.901 102.293 147.233C103.125 145.434 100.858 143.574 98.8773 143.482C96.8968 143.389 95.2152 144.917 95.1228 146.897Z" fill="#FAE0B2"/>
<path d="M98.2612 152.081C98.2612 152.081 98.3536 152.004 98.406 151.847C98.4614 151.677 98.7048 151.194 98.7048 151.194C98.7048 151.194 96.4286 150.926 95.8989 149.404C95.8989 149.407 95.4954 151.28 98.2612 152.081Z" fill="#FE875E"/>
<path d="M92.0181 152.564C87.2194 152.506 88.7225 163.957 92.2552 165.479C96.6073 167.354 99.2345 166.717 99.2345 166.717L99.2684 164.096C99.2437 164.083 94.1094 163.273 93.9862 161.65C93.7151 158.09 96.3516 152.869 92.0181 152.564Z" fill="#F47458"/>
<path d="M104.504 167.789L98.1381 167.786C98.2705 167.786 98.3937 167.832 98.483 167.906C98.5723 167.98 98.6247 168.081 98.6247 168.195C98.6247 168.42 98.406 168.605 98.1381 168.605L111.231 168.614C111.499 168.614 111.718 168.429 111.718 168.205C111.718 168.091 111.662 167.989 111.576 167.915C111.487 167.841 111.367 167.795 111.231 167.795L104.504 167.789Z" fill="#D1D1D1"/>
<path d="M90.9986 167.78C90.7738 167.78 90.589 167.962 90.589 168.189C90.589 168.303 90.6352 168.405 90.7091 168.479C90.783 168.553 90.8878 168.599 90.9986 168.599L98.2182 168.605C98.443 168.605 98.6278 168.42 98.6278 168.196C98.6278 168.082 98.5816 167.98 98.5077 167.906C98.4337 167.832 98.329 167.786 98.2182 167.786L91.1496 167.78H90.9986Z" fill="#9E9E9E"/>
<path d="M97.7869 167.57C97.8978 167.705 98.061 167.782 98.2335 167.786H98.751C98.5754 167.786 98.4122 167.705 98.3044 167.57C98.1935 167.434 98.1504 167.259 98.1873 167.086L99.9029 158.912C99.9583 158.647 100.199 158.453 100.47 158.453H99.9522C99.6811 158.453 99.4409 158.647 99.3854 158.912L97.6699 167.086C97.636 167.259 97.6791 167.431 97.7869 167.57Z" fill="#D1D1D1"/>
<path d="M98.3044 167.57C98.4153 167.705 98.5785 167.782 98.751 167.786L111.176 167.795C111.447 167.795 111.687 167.601 111.742 167.336L113.458 159.162C113.492 158.989 113.452 158.817 113.341 158.678C113.233 158.542 113.067 158.465 112.894 158.462L100.47 158.453C100.199 158.453 99.9584 158.647 99.9029 158.912L98.1874 167.086C98.1504 167.259 98.1935 167.431 98.3044 167.57Z" fill="#F4F4F4"/>
<path d="M105.151 163.123C105.151 163.495 105.453 163.797 105.826 163.797C106.198 163.797 106.5 163.495 106.5 163.123C106.5 162.75 106.198 162.448 105.826 162.448C105.453 162.448 105.151 162.75 105.151 163.123Z" fill="white"/>
<path d="M95.0642 146.053C95.0642 146.053 99.5364 147.541 101.933 145.142C101.933 145.142 100.408 146.873 99.3516 146.688C99.3516 146.688 100.848 147.153 101.933 145.45C101.933 145.45 102.234 147.014 103.011 147.335C103.011 147.335 103.722 142.973 99.9645 142.431C96.21 141.895 95.2459 144.335 95.0642 146.053Z" fill="#13375B"/>
<path d="M121.167 182.554C121.167 182.554 122.27 183.746 122.704 183.506L118.192 186.475L117.231 185.144L121.167 182.554Z" fill="#FAE0B2"/>
<path d="M124.303 182.951L123.034 183.392C122.769 183.484 122.476 183.472 122.221 183.355L121.617 182.991L120.357 185.024L117.644 185.727L117.912 186.096L119.338 185.696L118.158 186.472C117.961 186.601 117.905 186.866 118.035 187.063L118.392 187.605C118.531 187.815 118.811 187.873 119.02 187.735L120.369 186.848V186.13L121.337 186.21L125.578 183.42C125.661 183.364 125.667 183.244 125.59 183.182C125.236 182.884 124.746 182.797 124.303 182.951Z" fill="#13375B"/>
<path d="M112.149 189.934C112.149 189.934 112.417 191.536 112.91 191.573H107.508L107.434 189.934H112.149Z" fill="#FAE0B2"/>
<path d="M114.555 191.988L113.255 191.659C112.981 191.591 112.747 191.419 112.596 191.181L112.291 190.544L110.122 191.551L107.471 190.649L107.492 191.104L108.906 191.554H107.492C107.255 191.554 107.064 191.745 107.064 191.982V192.632C107.064 192.882 107.267 193.088 107.52 193.088H109.134L109.528 192.487L110.292 193.088H115.371C115.469 193.088 115.543 192.989 115.512 192.897C115.371 192.444 115.007 192.102 114.555 191.988Z" fill="#13375B"/>
<path d="M109.891 177.546L112.522 189.934H107.184L102.86 176.844C102.86 176.844 104.409 176.136 106.599 175.209C108.786 174.282 109.337 176.173 109.891 177.546Z" fill="#355389"/>
<path d="M89.2153 174.226C89.8528 177.91 91.6916 178.812 96.5549 178.248C102.65 177.543 106.035 175.424 106.035 175.424L116.621 185.191L121.149 181.984C121.149 181.984 118.414 178.504 114.838 174.207C111.056 169.658 110.246 167.12 103.109 168.83C98.7048 169.886 95.3198 169.945 92.129 170.672C90.2902 171.09 89.1106 171.383 89.1106 171.383C89.0212 172.329 89.0551 173.293 89.2153 174.226Z" fill="#466EB6"/>
<path d="M89.2154 174.226C92.9914 174.466 92.126 170.675 92.126 170.675C90.2872 171.094 89.1076 171.386 89.1076 171.386C89.0213 172.329 89.0552 173.293 89.2154 174.226Z" fill="#11442F"/>
<path d="M120.791 181.489L116.104 184.861C115.882 185.021 115.833 185.332 115.99 185.551C116.15 185.773 116.461 185.822 116.68 185.665L121.367 182.292C121.589 182.132 121.638 181.821 121.481 181.603C121.324 181.381 121.013 181.332 120.791 181.489Z" fill="#11442F"/>
<path d="M112.654 188.942H106.876C106.605 188.942 106.38 189.164 106.38 189.438C106.38 189.709 106.602 189.934 106.876 189.934H112.651C112.922 189.934 113.147 189.712 113.147 189.438C113.147 189.164 112.925 188.942 112.654 188.942Z" fill="#11442F"/>
</svg>
