<svg width="21" height="27" viewBox="0 0 21 27" fill="none" xmlns="http://www.w3.org/2000/svg">
<path d="M7.67611 18.2923C9.56567 18.1356 11.4639 18.1356 13.3535 18.2923C14.3825 18.354 15.4066 18.4864 16.4193 18.6886C18.6108 19.145 20.0415 19.8897 20.6546 21.0907C21.1151 22.0281 21.1151 23.144 20.6546 24.0814C20.0415 25.2825 18.6675 26.0752 16.3966 26.4835C15.3846 26.6934 14.3603 26.8299 13.3308 26.8919C12.377 27 11.4232 27 10.458 27H8.72075C8.3574 26.952 8.0054 26.9279 7.66475 26.9279C6.63518 26.8735 5.61063 26.741 4.59897 26.5316C2.40749 26.0992 0.976792 25.3305 0.363635 24.1294C0.126933 23.6642 0.00214473 23.1444 0.000136786 22.6161C-0.00465191 22.0845 0.116363 21.5601 0.35228 21.0907C0.954083 19.8897 2.38478 19.109 4.59897 18.6886C5.61509 18.4835 6.64314 18.351 7.67611 18.2923ZM10.5034 0C14.31 0 17.3958 3.26406 17.3958 7.29048C17.3958 11.3169 14.31 14.581 10.5034 14.581C6.69691 14.581 3.6111 11.3169 3.6111 7.29048C3.6111 3.26406 6.69691 0 10.5034 0Z" fill="#1E2A23"/>
</svg>
